<?xml version="1.0" encoding="UTF-8" standalone="no"?>
<!DOCTYPE svg PUBLIC "-//W3C//DTD SVG 1.1//EN"
 "http://www.w3.org/Graphics/SVG/1.1/DTD/svg11.dtd">
<!-- Generated by graphviz version 2.38.0 (20140413.2041)
 -->
<!-- Title: dependencies Pages: 1 -->
<svg width="576pt" height="717pt"
 viewBox="0.00 0.00 576.00 716.59" xmlns="http://www.w3.org/2000/svg" xmlns:xlink="http://www.w3.org/1999/xlink">
<g id="graph0" class="graph" transform="scale(0.98432 0.98432) rotate(0) translate(4 724)">
<title>dependencies</title>
<polygon fill="white" stroke="none" points="-4,4 -4,-724 581.175,-724 581.175,4 -4,4"/>
<!-- networkHet -->
<g id="node1" class="node"><title>networkHet</title>
<ellipse fill="lightgrey" stroke="black" cx="124.175" cy="-27.6923" rx="37.1717" ry="18"/>
<text text-anchor="middle" x="124.175" y="-25.1923" font-family="Times New Roman,serif" font-size="10.00">networkHet</text>
</g>
<!-- networkHet/MungeDataSet.py -->
<g id="node2" class="node"><title>networkHet/MungeDataSet.py</title>
<ellipse fill="lightgrey" stroke="black" cx="124.175" cy="-442.692" rx="82.3257" ry="18"/>
<text text-anchor="middle" x="124.175" y="-440.192" font-family="Times New Roman,serif" font-size="10.00">networkHet/MungeDataSet.py</text>
</g>
<!-- networkHet/mungedata/MungeDataFuncs.py -->
<g id="node3" class="node"><title>networkHet/mungedata/MungeDataFuncs.py</title>
<ellipse fill="lightgrey" stroke="black" cx="434.175" cy="-276.692" rx="117.288" ry="18"/>
<text text-anchor="middle" x="434.175" y="-274.192" font-family="Times New Roman,serif" font-size="10.00">networkHet/mungedata/MungeDataFuncs.py</text>
</g>
<!-- networkHet/MungeDataSet.py&#45;&gt;networkHet/mungedata/MungeDataFuncs.py -->
<g id="edge1" class="edge"><title>networkHet/MungeDataSet.py&#45;&gt;networkHet/mungedata/MungeDataFuncs.py</title>
<path fill="none" stroke="black" d="M156.118,-426.016C211.95,-395.924 329.537,-332.55 392.058,-298.853"/>
<polygon fill="black" stroke="black" points="393.726,-301.93 400.869,-294.104 390.405,-295.768 393.726,-301.93"/>
</g>
<!-- networkHet/bpointsdataset.py -->
<g id="node4" class="node"><title>networkHet/bpointsdataset.py</title>
<ellipse fill="lightgrey" stroke="black" cx="124.175" cy="-359.692" rx="81.6487" ry="18"/>
<text text-anchor="middle" x="124.175" y="-357.192" font-family="Times New Roman,serif" font-size="10.00">networkHet/bpointsdataset.py</text>
</g>
<!-- networkHet/bpointsdataset.py&#45;&gt;networkHet/mungedata/MungeDataFuncs.py -->
<g id="edge2" class="edge"><title>networkHet/bpointsdataset.py&#45;&gt;networkHet/mungedata/MungeDataFuncs.py</title>
<path fill="none" stroke="black" d="M176.728,-345.8C228.424,-331.869 308.308,-310.342 365.17,-295.018"/>
<polygon fill="black" stroke="black" points="366.408,-298.31 375.153,-292.328 364.586,-291.551 366.408,-298.31"/>
</g>
<!-- networkHet/data_analysis.py -->
<g id="node5" class="node"><title>networkHet/data_analysis.py</title>
<ellipse fill="lightgrey" stroke="black" cx="124.175" cy="-276.692" rx="78.7618" ry="18"/>
<text text-anchor="middle" x="124.175" y="-274.192" font-family="Times New Roman,serif" font-size="10.00">networkHet/data_analysis.py</text>
</g>
<!-- networkHet/data_analysis.py&#45;&gt;networkHet/mungedata/MungeDataFuncs.py -->
<g id="edge3" class="edge"><title>networkHet/data_analysis.py&#45;&gt;networkHet/mungedata/MungeDataFuncs.py</title>
<path fill="none" stroke="black" d="M203.295,-276.692C234.682,-276.692 271.676,-276.692 306.705,-276.692"/>
<polygon fill="black" stroke="black" points="307.014,-280.192 317.014,-276.692 307.014,-273.192 307.014,-280.192"/>
</g>
<!-- networkHet/data_analysis_graphs.py -->
<g id="node6" class="node"><title>networkHet/data_analysis_graphs.py</title>
<ellipse fill="lightgrey" stroke="black" cx="124.175" cy="-193.692" rx="98.1138" ry="18"/>
<text text-anchor="middle" x="124.175" y="-191.192" font-family="Times New Roman,serif" font-size="10.00">networkHet/data_analysis_graphs.py</text>
</g>
<!-- networkHet/data_analysis_graphs.py&#45;&gt;networkHet/mungedata/MungeDataFuncs.py -->
<g id="edge4" class="edge"><title>networkHet/data_analysis_graphs.py&#45;&gt;networkHet/mungedata/MungeDataFuncs.py</title>
<path fill="none" stroke="black" d="M180.24,-208.531C232.065,-222.497 309.815,-243.449 365.422,-258.434"/>
<polygon fill="black" stroke="black" points="364.622,-261.843 375.188,-261.066 366.443,-255.084 364.622,-261.843"/>
</g>
<!-- networkHet/data_analysis_isoedge.py -->
<g id="node7" class="node"><title>networkHet/data_analysis_isoedge.py</title>
<ellipse fill="lightgrey" stroke="black" cx="124.175" cy="-525.692" rx="100.823" ry="18"/>
<text text-anchor="middle" x="124.175" y="-523.192" font-family="Times New Roman,serif" font-size="10.00">networkHet/data_analysis_isoedge.py</text>
</g>
<!-- networkHet/data_analysis_localcon.py -->
<g id="node8" class="node"><title>networkHet/data_analysis_localcon.py</title>
<ellipse fill="lightgrey" stroke="black" cx="124.175" cy="-110.692" rx="101.678" ry="18"/>
<text text-anchor="middle" x="124.175" y="-108.192" font-family="Times New Roman,serif" font-size="10.00">networkHet/data_analysis_localcon.py</text>
</g>
<!-- networkHet/data_analysis_localcon.py&#45;&gt;networkHet/mungedata/MungeDataFuncs.py -->
<g id="edge5" class="edge"><title>networkHet/data_analysis_localcon.py&#45;&gt;networkHet/mungedata/MungeDataFuncs.py</title>
<path fill="none" stroke="black" d="M156.977,-127.832C213.115,-158.088 329.718,-220.933 391.947,-254.472"/>
<polygon fill="black" stroke="black" points="390.622,-257.734 401.086,-259.397 393.943,-251.572 390.622,-257.734"/>
</g>
<!-- networkHet/data_analysis_o2.py -->
<g id="node9" class="node"><title>networkHet/data_analysis_o2.py</title>
<ellipse fill="lightgrey" stroke="black" cx="124.175" cy="-609.692" rx="87.9221" ry="18"/>
<text text-anchor="middle" x="124.175" y="-607.192" font-family="Times New Roman,serif" font-size="10.00">networkHet/data_analysis_o2.py</text>
</g>
<!-- networkHet/mungedata -->
<g id="node10" class="node"><title>networkHet/mungedata</title>
<ellipse fill="lightgrey" stroke="black" cx="124.175" cy="-692.692" rx="64.5068" ry="18"/>
<text text-anchor="middle" x="124.175" y="-690.192" font-family="Times New Roman,serif" font-size="10.00">networkHet/mungedata</text>
</g>
</g>
</svg>
