<?xml version="1.0" encoding="utf-8" standalone="no"?>
<!DOCTYPE svg PUBLIC "-//W3C//DTD SVG 1.1//EN"
  "http://www.w3.org/Graphics/SVG/1.1/DTD/svg11.dtd">
<!-- Created with matplotlib (http://matplotlib.org/) -->
<svg height="306pt" version="1.1" viewBox="0 0 396 306" width="396pt" xmlns="http://www.w3.org/2000/svg" xmlns:xlink="http://www.w3.org/1999/xlink">
 <defs>
  <style type="text/css">
*{stroke-linecap:butt;stroke-linejoin:round;stroke-miterlimit:100000;}
  </style>
 </defs>
 <g id="figure_1">
  <g id="patch_1">
   <path d="M 0 306 
L 396 306 
L 396 0 
L 0 0 
z
" style="fill:#ffffff;"/>
  </g>
  <g id="axes_1">
   <g id="patch_2">
    <path d="M 44.4805 136.916 
L 178.552631 136.916 
L 178.552631 10.368 
L 44.4805 10.368 
z
" style="fill:#ffffff;"/>
   </g>
   <g id="matplotlib.axis_1">
    <g id="xtick_1">
     <g id="line2d_1">
      <defs>
       <path d="M 0 0 
L 0 0 
" id="m1ca851b3e6" style="stroke:#262626;stroke-width:0.8;"/>
      </defs>
      <g>
       <use style="fill:#262626;stroke:#262626;stroke-width:0.8;" x="61.2395164063" xlink:href="#m1ca851b3e6" y="136.916"/>
      </g>
     </g>
    </g>
    <g id="xtick_2">
     <g id="line2d_2">
      <g>
       <use style="fill:#262626;stroke:#262626;stroke-width:0.8;" x="94.7575492188" xlink:href="#m1ca851b3e6" y="136.916"/>
      </g>
     </g>
    </g>
    <g id="xtick_3">
     <g id="line2d_3">
      <g>
       <use style="fill:#262626;stroke:#262626;stroke-width:0.8;" x="128.275582031" xlink:href="#m1ca851b3e6" y="136.916"/>
      </g>
     </g>
    </g>
    <g id="xtick_4">
     <g id="line2d_4">
      <g>
       <use style="fill:#262626;stroke:#262626;stroke-width:0.8;" x="161.793614844" xlink:href="#m1ca851b3e6" y="136.916"/>
      </g>
     </g>
    </g>
   </g>
   <g id="patch_3">
    <path d="M 44.4805 136.916 
L 44.4805 10.368 
" style="fill:none;stroke:#cccccc;stroke-linecap:square;stroke-linejoin:miter;"/>
   </g>
  </g>
  <g id="axes_2">
   <g id="patch_4">
    <path d="M 251.559869 136.916 
L 385.632 136.916 
L 385.632 10.368 
L 251.559869 10.368 
z
" style="fill:#ffffff;"/>
   </g>
   <g id="matplotlib.axis_2">
    <g id="xtick_5">
     <g id="line2d_5">
      <g>
       <use style="fill:#262626;stroke:#262626;stroke-width:0.8;" x="268.318885156" xlink:href="#m1ca851b3e6" y="136.916"/>
      </g>
     </g>
    </g>
    <g id="xtick_6">
     <g id="line2d_6">
      <g>
       <use style="fill:#262626;stroke:#262626;stroke-width:0.8;" x="301.836917969" xlink:href="#m1ca851b3e6" y="136.916"/>
      </g>
     </g>
    </g>
    <g id="xtick_7">
     <g id="line2d_7">
      <g>
       <use style="fill:#262626;stroke:#262626;stroke-width:0.8;" x="335.354950781" xlink:href="#m1ca851b3e6" y="136.916"/>
      </g>
     </g>
    </g>
    <g id="xtick_8">
     <g id="line2d_8">
      <g>
       <use style="fill:#262626;stroke:#262626;stroke-width:0.8;" x="368.872983594" xlink:href="#m1ca851b3e6" y="136.916"/>
      </g>
     </g>
    </g>
   </g>
   <g id="matplotlib.axis_3">
    <g id="ytick_1">
     <g id="line2d_9">
      <path clip-path="url(#pbe435c3031)" d="M 251.559869 136.916 
L 385.632 136.916 
" style="fill:none;stroke:#cccccc;stroke-linecap:round;stroke-width:0.8;"/>
     </g>
     <g id="line2d_10">
      <g>
       <use style="fill:#262626;stroke:#262626;stroke-width:0.8;" x="251.55986875" xlink:href="#m1ca851b3e6" y="136.916"/>
      </g>
     </g>
     <g id="text_1">
      <!-- 0.000 -->
      <defs>
       <path d="M 4.15625 35.296875 
Q 4.15625 48 6.765625 55.734375 
Q 9.375 63.484375 14.515625 67.671875 
Q 19.671875 71.875 27.484375 71.875 
Q 33.25 71.875 37.59375 69.546875 
Q 41.9375 67.234375 44.765625 62.859375 
Q 47.609375 58.5 49.21875 52.21875 
Q 50.828125 45.953125 50.828125 35.296875 
Q 50.828125 22.703125 48.234375 14.96875 
Q 45.65625 7.234375 40.5 3 
Q 35.359375 -1.21875 27.484375 -1.21875 
Q 17.140625 -1.21875 11.234375 6.203125 
Q 4.15625 15.140625 4.15625 35.296875 
M 13.1875 35.296875 
Q 13.1875 17.671875 17.3125 11.828125 
Q 21.4375 6 27.484375 6 
Q 33.546875 6 37.671875 11.859375 
Q 41.796875 17.71875 41.796875 35.296875 
Q 41.796875 52.984375 37.671875 58.78125 
Q 33.546875 64.59375 27.390625 64.59375 
Q 21.34375 64.59375 17.71875 59.46875 
Q 13.1875 52.9375 13.1875 35.296875 
" id="ArialMT-30"/>
       <path d="M 9.078125 0 
L 9.078125 10.015625 
L 19.09375 10.015625 
L 19.09375 0 
z
" id="ArialMT-2e"/>
      </defs>
      <g style="fill:#262626;" transform="translate(225.94236875 138.984125)scale(0.08 -0.08)">
       <use xlink:href="#ArialMT-30"/>
       <use x="55.615234375" xlink:href="#ArialMT-2e"/>
       <use x="83.3984375" xlink:href="#ArialMT-30"/>
       <use x="139.013671875" xlink:href="#ArialMT-30"/>
       <use x="194.62890625" xlink:href="#ArialMT-30"/>
      </g>
     </g>
    </g>
    <g id="ytick_2">
     <g id="line2d_11">
      <path clip-path="url(#pbe435c3031)" d="M 251.559869 91.720286 
L 385.632 91.720286 
" style="fill:none;stroke:#cccccc;stroke-linecap:round;stroke-width:0.8;"/>
     </g>
     <g id="line2d_12">
      <g>
       <use style="fill:#262626;stroke:#262626;stroke-width:0.8;" x="251.55986875" xlink:href="#m1ca851b3e6" y="91.7202857143"/>
      </g>
     </g>
     <g id="text_2">
      <!-- 0.005 -->
      <defs>
       <path d="M 4.15625 18.75 
L 13.375 19.53125 
Q 14.40625 12.796875 18.140625 9.390625 
Q 21.875 6 27.15625 6 
Q 33.5 6 37.890625 10.78125 
Q 42.28125 15.578125 42.28125 23.484375 
Q 42.28125 31 38.0625 35.34375 
Q 33.84375 39.703125 27 39.703125 
Q 22.75 39.703125 19.328125 37.765625 
Q 15.921875 35.84375 13.96875 32.765625 
L 5.71875 33.84375 
L 12.640625 70.609375 
L 48.25 70.609375 
L 48.25 62.203125 
L 19.671875 62.203125 
L 15.828125 42.96875 
Q 22.265625 47.46875 29.34375 47.46875 
Q 38.71875 47.46875 45.15625 40.96875 
Q 51.609375 34.46875 51.609375 24.265625 
Q 51.609375 14.546875 45.953125 7.46875 
Q 39.0625 -1.21875 27.15625 -1.21875 
Q 17.390625 -1.21875 11.203125 4.25 
Q 5.03125 9.71875 4.15625 18.75 
" id="ArialMT-35"/>
      </defs>
      <g style="fill:#262626;" transform="translate(225.94236875 93.7884107143)scale(0.08 -0.08)">
       <use xlink:href="#ArialMT-30"/>
       <use x="55.615234375" xlink:href="#ArialMT-2e"/>
       <use x="83.3984375" xlink:href="#ArialMT-30"/>
       <use x="139.013671875" xlink:href="#ArialMT-30"/>
       <use x="194.62890625" xlink:href="#ArialMT-35"/>
      </g>
     </g>
    </g>
    <g id="ytick_3">
     <g id="line2d_13">
      <path clip-path="url(#pbe435c3031)" d="M 251.559869 46.524571 
L 385.632 46.524571 
" style="fill:none;stroke:#cccccc;stroke-linecap:round;stroke-width:0.8;"/>
     </g>
     <g id="line2d_14">
      <g>
       <use style="fill:#262626;stroke:#262626;stroke-width:0.8;" x="251.55986875" xlink:href="#m1ca851b3e6" y="46.5245714286"/>
      </g>
     </g>
     <g id="text_3">
      <!-- 0.010 -->
      <defs>
       <path d="M 37.25 0 
L 28.46875 0 
L 28.46875 56 
Q 25.296875 52.984375 20.140625 49.953125 
Q 14.984375 46.921875 10.890625 45.40625 
L 10.890625 53.90625 
Q 18.265625 57.375 23.78125 62.296875 
Q 29.296875 67.234375 31.59375 71.875 
L 37.25 71.875 
z
" id="ArialMT-31"/>
      </defs>
      <g style="fill:#262626;" transform="translate(225.94236875 48.5926964286)scale(0.08 -0.08)">
       <use xlink:href="#ArialMT-30"/>
       <use x="55.615234375" xlink:href="#ArialMT-2e"/>
       <use x="83.3984375" xlink:href="#ArialMT-30"/>
       <use x="139.013671875" xlink:href="#ArialMT-31"/>
       <use x="194.62890625" xlink:href="#ArialMT-30"/>
      </g>
     </g>
    </g>
    <g id="text_4">
     <!-- OCR per mito vol /$\mu m^{3}$ -->
     <defs>
      <path d="M 9.515625 7.71875 
Q 11.859375 4.296875 15.8125 2.640625 
Q 19.78125 0.984375 24.3125 0.984375 
Q 30.125 0.984375 32.5625 5.9375 
Q 35.015625 10.890625 35.015625 17.1875 
Q 35.015625 20.015625 34.5 22.84375 
Q 33.984375 25.6875 32.765625 28.125 
Q 31.546875 30.5625 29.421875 32.03125 
Q 27.296875 33.5 24.21875 33.5 
L 17.578125 33.5 
Q 16.703125 33.5 16.703125 34.421875 
L 16.703125 35.296875 
Q 16.703125 36.078125 17.578125 36.078125 
L 23.09375 36.53125 
Q 26.609375 36.53125 28.921875 39.15625 
Q 31.25 41.796875 32.328125 45.578125 
Q 33.40625 49.359375 33.40625 52.78125 
Q 33.40625 57.5625 31.15625 60.640625 
Q 28.90625 63.71875 24.3125 63.71875 
Q 20.515625 63.71875 17.046875 62.28125 
Q 13.578125 60.84375 11.53125 57.90625 
Q 11.71875 57.953125 11.859375 57.984375 
Q 12.015625 58.015625 12.203125 58.015625 
Q 14.453125 58.015625 15.96875 56.453125 
Q 17.484375 54.890625 17.484375 52.6875 
Q 17.484375 50.53125 15.96875 48.96875 
Q 14.453125 47.40625 12.203125 47.40625 
Q 10.015625 47.40625 8.453125 48.96875 
Q 6.890625 50.53125 6.890625 52.6875 
Q 6.890625 56.984375 9.46875 60.15625 
Q 12.0625 63.328125 16.140625 64.96875 
Q 20.21875 66.609375 24.3125 66.609375 
Q 27.34375 66.609375 30.703125 65.703125 
Q 34.078125 64.796875 36.8125 63.109375 
Q 39.546875 61.421875 41.28125 58.78125 
Q 43.015625 56.15625 43.015625 52.78125 
Q 43.015625 48.578125 41.140625 45.015625 
Q 39.265625 41.453125 35.984375 38.859375 
Q 32.71875 36.28125 28.8125 35.015625 
Q 33.15625 34.1875 37.0625 31.734375 
Q 40.96875 29.296875 43.328125 25.484375 
Q 45.703125 21.6875 45.703125 17.28125 
Q 45.703125 11.765625 42.671875 7.296875 
Q 39.65625 2.828125 34.71875 0.3125 
Q 29.78125 -2.203125 24.3125 -2.203125 
Q 19.625 -2.203125 14.90625 -0.40625 
Q 10.203125 1.375 7.203125 4.9375 
Q 4.203125 8.5 4.203125 13.484375 
Q 4.203125 15.96875 5.859375 17.625 
Q 7.515625 19.28125 10.015625 19.28125 
Q 11.625 19.28125 12.96875 18.53125 
Q 14.3125 17.78125 15.0625 16.40625 
Q 15.828125 15.046875 15.828125 13.484375 
Q 15.828125 11.03125 14.109375 9.375 
Q 12.40625 7.71875 10.015625 7.71875 
z
" id="Cmr10-33"/>
      <path d="M 21 0 
L 1.265625 51.859375 
L 10.546875 51.859375 
L 21.6875 20.796875 
Q 23.484375 15.765625 25 10.359375 
Q 26.171875 14.453125 28.265625 20.21875 
L 39.796875 51.859375 
L 48.828125 51.859375 
L 29.203125 0 
z
" id="ArialMT-76"/>
      <path d="M 42.09375 16.703125 
L 51.171875 15.578125 
Q 49.03125 7.625 43.21875 3.21875 
Q 37.40625 -1.171875 28.375 -1.171875 
Q 17 -1.171875 10.328125 5.828125 
Q 3.65625 12.84375 3.65625 25.484375 
Q 3.65625 38.578125 10.390625 45.796875 
Q 17.140625 53.03125 27.875 53.03125 
Q 38.28125 53.03125 44.875 45.953125 
Q 51.46875 38.875 51.46875 26.03125 
Q 51.46875 25.25 51.421875 23.6875 
L 12.75 23.6875 
Q 13.234375 15.140625 17.578125 10.59375 
Q 21.921875 6.0625 28.421875 6.0625 
Q 33.25 6.0625 36.671875 8.59375 
Q 40.09375 11.140625 42.09375 16.703125 
M 13.234375 30.90625 
L 42.1875 30.90625 
Q 41.609375 37.453125 38.875 40.71875 
Q 34.671875 45.796875 27.984375 45.796875 
Q 21.921875 45.796875 17.796875 41.75 
Q 13.671875 37.703125 13.234375 30.90625 
" id="ArialMT-65"/>
      <path d="M 7.859375 0 
L 7.859375 71.578125 
L 39.59375 71.578125 
Q 49.171875 71.578125 54.140625 69.640625 
Q 59.125 67.71875 62.109375 62.828125 
Q 65.09375 57.953125 65.09375 52.046875 
Q 65.09375 44.4375 60.15625 39.203125 
Q 55.21875 33.984375 44.921875 32.5625 
Q 48.6875 30.765625 50.640625 29 
Q 54.78125 25.203125 58.5 19.484375 
L 70.953125 0 
L 59.03125 0 
L 49.5625 14.890625 
Q 45.40625 21.34375 42.71875 24.75 
Q 40.046875 28.171875 37.921875 29.53125 
Q 35.796875 30.90625 33.59375 31.453125 
Q 31.984375 31.78125 28.328125 31.78125 
L 17.328125 31.78125 
L 17.328125 0 
z
M 17.328125 39.984375 
L 37.703125 39.984375 
Q 44.1875 39.984375 47.84375 41.328125 
Q 51.515625 42.671875 53.421875 45.625 
Q 55.328125 48.578125 55.328125 52.046875 
Q 55.328125 57.125 51.640625 60.390625 
Q 47.953125 63.671875 39.984375 63.671875 
L 17.328125 63.671875 
z
" id="ArialMT-52"/>
      <path d="M 0 -1.21875 
L 20.75 72.796875 
L 27.78125 72.796875 
L 7.078125 -1.21875 
z
" id="ArialMT-2f"/>
      <path d="M 58.796875 25.09375 
L 68.265625 22.703125 
Q 65.28125 11.03125 57.546875 4.90625 
Q 49.8125 -1.21875 38.625 -1.21875 
Q 27.046875 -1.21875 19.796875 3.484375 
Q 12.546875 8.203125 8.765625 17.140625 
Q 4.984375 26.078125 4.984375 36.328125 
Q 4.984375 47.515625 9.25 55.828125 
Q 13.53125 64.15625 21.40625 68.46875 
Q 29.296875 72.796875 38.765625 72.796875 
Q 49.515625 72.796875 56.828125 67.328125 
Q 64.15625 61.859375 67.046875 51.953125 
L 57.71875 49.75 
Q 55.21875 57.5625 50.484375 61.125 
Q 45.75 64.703125 38.578125 64.703125 
Q 30.328125 64.703125 24.78125 60.734375 
Q 19.234375 56.78125 16.984375 50.109375 
Q 14.75 43.453125 14.75 36.375 
Q 14.75 27.25 17.40625 20.4375 
Q 20.0625 13.625 25.671875 10.25 
Q 31.296875 6.890625 37.84375 6.890625 
Q 45.796875 6.890625 51.3125 11.46875 
Q 56.84375 16.0625 58.796875 25.09375 
" id="ArialMT-43"/>
      <path d="M 7.71875 1.703125 
Q 7.71875 2.296875 7.8125 2.59375 
L 15.28125 32.421875 
Q 16.015625 35.203125 16.015625 37.3125 
Q 16.015625 41.609375 13.09375 41.609375 
Q 9.96875 41.609375 8.453125 37.859375 
Q 6.9375 34.125 5.515625 28.421875 
Q 5.515625 28.125 5.21875 27.953125 
Q 4.9375 27.78125 4.6875 27.78125 
L 3.515625 27.78125 
Q 3.171875 27.78125 2.921875 28.140625 
Q 2.6875 28.515625 2.6875 28.8125 
Q 3.765625 33.15625 4.765625 36.171875 
Q 5.765625 39.203125 7.890625 41.6875 
Q 10.015625 44.1875 13.1875 44.1875 
Q 16.9375 44.1875 19.8125 41.8125 
Q 22.703125 39.453125 22.703125 35.796875 
Q 25.6875 39.703125 29.6875 41.9375 
Q 33.6875 44.1875 38.1875 44.1875 
Q 42.921875 44.1875 46.359375 41.765625 
Q 49.8125 39.359375 49.8125 34.90625 
Q 52.875 39.265625 57 41.71875 
Q 61.140625 44.1875 66.015625 44.1875 
Q 71.1875 44.1875 74.328125 41.375 
Q 77.484375 38.578125 77.484375 33.40625 
Q 77.484375 29.296875 75.65625 23.484375 
Q 73.828125 17.671875 71.09375 10.5 
Q 69.671875 7.03125 69.671875 4.5 
Q 69.671875 1.515625 72.015625 1.515625 
Q 75.921875 1.515625 78.515625 5.703125 
Q 81.109375 9.90625 82.171875 14.703125 
Q 82.46875 15.28125 83.015625 15.28125 
L 84.1875 15.28125 
Q 84.578125 15.28125 84.84375 15.015625 
Q 85.109375 14.75 85.109375 14.40625 
Q 85.109375 14.3125 85.015625 14.109375 
Q 83.640625 8.453125 80.25 3.65625 
Q 76.859375 -1.125 71.78125 -1.125 
Q 68.265625 -1.125 65.765625 1.296875 
Q 63.28125 3.71875 63.28125 7.171875 
Q 63.28125 8.9375 64.109375 11.078125 
Q 66.9375 18.609375 68.8125 24.515625 
Q 70.703125 30.421875 70.703125 34.90625 
Q 70.703125 37.703125 69.578125 39.65625 
Q 68.453125 41.609375 65.828125 41.609375 
Q 60.359375 41.609375 56.34375 38.25 
Q 52.34375 34.90625 49.421875 29.390625 
Q 49.21875 28.421875 49.125 27.875 
L 42.671875 2.203125 
Q 42.328125 0.828125 41.125 -0.140625 
Q 39.9375 -1.125 38.484375 -1.125 
Q 37.3125 -1.125 36.40625 -0.34375 
Q 35.5 0.4375 35.5 1.703125 
Q 35.5 2.296875 35.59375 2.59375 
L 42 28.078125 
Q 43.015625 32.171875 43.015625 34.90625 
Q 43.015625 37.703125 41.859375 39.65625 
Q 40.71875 41.609375 37.984375 41.609375 
Q 34.328125 41.609375 31.25 39.984375 
Q 28.171875 38.375 25.875 35.71875 
Q 23.578125 33.0625 21.6875 29.390625 
L 14.890625 2.203125 
Q 14.546875 0.828125 13.34375 -0.140625 
Q 12.15625 -1.125 10.6875 -1.125 
Q 9.46875 -1.125 8.59375 -0.34375 
Q 7.71875 0.4375 7.71875 1.703125 
" id="Cmmi10-6d"/>
      <path d="M 6.59375 -19.875 
L 6.59375 51.859375 
L 14.59375 51.859375 
L 14.59375 45.125 
Q 17.4375 49.078125 21 51.046875 
Q 24.5625 53.03125 29.640625 53.03125 
Q 36.28125 53.03125 41.359375 49.609375 
Q 46.4375 46.1875 49.015625 39.953125 
Q 51.609375 33.734375 51.609375 26.3125 
Q 51.609375 18.359375 48.75 11.984375 
Q 45.90625 5.609375 40.453125 2.21875 
Q 35.015625 -1.171875 29 -1.171875 
Q 24.609375 -1.171875 21.109375 0.6875 
Q 17.625 2.546875 15.375 5.375 
L 15.375 -19.875 
z
M 14.546875 25.640625 
Q 14.546875 15.625 18.59375 10.84375 
Q 22.65625 6.0625 28.421875 6.0625 
Q 34.28125 6.0625 38.453125 11.015625 
Q 42.625 15.96875 42.625 26.375 
Q 42.625 36.28125 38.546875 41.203125 
Q 34.46875 46.140625 28.8125 46.140625 
Q 23.1875 46.140625 18.859375 40.890625 
Q 14.546875 35.640625 14.546875 25.640625 
" id="ArialMT-70"/>
      <path d="M 6.5 0 
L 6.5 51.859375 
L 14.40625 51.859375 
L 14.40625 44 
Q 17.4375 49.515625 20 51.265625 
Q 22.5625 53.03125 25.640625 53.03125 
Q 30.078125 53.03125 34.671875 50.203125 
L 31.640625 42.046875 
Q 28.421875 43.953125 25.203125 43.953125 
Q 22.3125 43.953125 20.015625 42.21875 
Q 17.71875 40.484375 16.75 37.40625 
Q 15.28125 32.71875 15.28125 27.15625 
L 15.28125 0 
z
" id="ArialMT-72"/>
      <path d="M 6.390625 0 
L 6.390625 71.578125 
L 15.1875 71.578125 
L 15.1875 0 
z
" id="ArialMT-6c"/>
      <path d="M 25.78125 7.859375 
L 27.046875 0.09375 
Q 23.34375 -0.6875 20.40625 -0.6875 
Q 15.625 -0.6875 12.984375 0.828125 
Q 10.359375 2.34375 9.28125 4.8125 
Q 8.203125 7.28125 8.203125 15.1875 
L 8.203125 45.015625 
L 1.765625 45.015625 
L 1.765625 51.859375 
L 8.203125 51.859375 
L 8.203125 64.703125 
L 16.9375 69.96875 
L 16.9375 51.859375 
L 25.78125 51.859375 
L 25.78125 45.015625 
L 16.9375 45.015625 
L 16.9375 14.703125 
Q 16.9375 10.9375 17.40625 9.859375 
Q 17.875 8.796875 18.921875 8.15625 
Q 19.96875 7.515625 21.921875 7.515625 
Q 23.390625 7.515625 25.78125 7.859375 
" id="ArialMT-74"/>
      <path d="M 2.78125 -18.796875 
Q 2.78125 -18.21875 2.875 -18.015625 
L 17.578125 41.015625 
Q 18.015625 42.4375 19.15625 43.3125 
Q 20.3125 44.1875 21.78125 44.1875 
Q 23.046875 44.1875 23.921875 43.421875 
Q 24.8125 42.671875 24.8125 41.40625 
Q 24.8125 41.109375 24.78125 40.9375 
Q 24.75 40.765625 24.703125 40.578125 
L 18.796875 17.1875 
Q 17.828125 13.03125 17.828125 10.015625 
Q 17.828125 6.296875 19.578125 3.90625 
Q 21.34375 1.515625 24.90625 1.515625 
Q 32.171875 1.515625 37.703125 10.59375 
Q 37.75 10.6875 37.765625 10.734375 
Q 37.796875 10.796875 37.796875 10.890625 
L 45.015625 39.890625 
Q 45.359375 41.21875 46.578125 42.15625 
Q 47.796875 43.109375 49.21875 43.109375 
Q 50.390625 43.109375 51.296875 42.328125 
Q 52.203125 41.546875 52.203125 40.28125 
Q 52.203125 39.703125 52.09375 39.5 
L 44.921875 10.6875 
Q 44.1875 7.859375 44.1875 5.8125 
Q 44.1875 1.515625 47.125 1.515625 
Q 50.25 1.515625 51.828125 5.375 
Q 53.421875 9.234375 54.59375 14.703125 
Q 54.78125 15.28125 55.421875 15.28125 
L 56.59375 15.28125 
Q 56.984375 15.28125 57.25 14.96875 
Q 57.515625 14.65625 57.515625 14.3125 
Q 55.765625 7.328125 53.6875 3.09375 
Q 51.609375 -1.125 46.921875 -1.125 
Q 43.609375 -1.125 41.046875 0.78125 
Q 38.484375 2.6875 37.703125 5.90625 
Q 35.203125 2.78125 31.859375 0.828125 
Q 28.515625 -1.125 24.8125 -1.125 
Q 18.5625 -1.125 14.984375 1.8125 
L 9.90625 -18.40625 
Q 9.625 -19.828125 8.453125 -20.703125 
Q 7.28125 -21.578125 5.8125 -21.578125 
Q 4.59375 -21.578125 3.6875 -20.8125 
Q 2.78125 -20.0625 2.78125 -18.796875 
" id="Cmmi10-b9"/>
      <path d="M 3.328125 25.921875 
Q 3.328125 40.328125 11.328125 47.265625 
Q 18.015625 53.03125 27.640625 53.03125 
Q 38.328125 53.03125 45.109375 46.015625 
Q 51.90625 39.015625 51.90625 26.65625 
Q 51.90625 16.65625 48.90625 10.90625 
Q 45.90625 5.171875 40.15625 2 
Q 34.421875 -1.171875 27.640625 -1.171875 
Q 16.75 -1.171875 10.03125 5.8125 
Q 3.328125 12.796875 3.328125 25.921875 
M 12.359375 25.921875 
Q 12.359375 15.96875 16.703125 11.015625 
Q 21.046875 6.0625 27.640625 6.0625 
Q 34.1875 6.0625 38.53125 11.03125 
Q 42.875 16.015625 42.875 26.21875 
Q 42.875 35.84375 38.5 40.796875 
Q 34.125 45.75 27.640625 45.75 
Q 21.046875 45.75 16.703125 40.8125 
Q 12.359375 35.890625 12.359375 25.921875 
" id="ArialMT-6f"/>
      <path d="M 6.59375 0 
L 6.59375 51.859375 
L 14.453125 51.859375 
L 14.453125 44.578125 
Q 16.890625 48.390625 20.9375 50.703125 
Q 25 53.03125 30.171875 53.03125 
Q 35.9375 53.03125 39.625 50.640625 
Q 43.3125 48.25 44.828125 43.953125 
Q 50.984375 53.03125 60.84375 53.03125 
Q 68.5625 53.03125 72.703125 48.75 
Q 76.859375 44.484375 76.859375 35.59375 
L 76.859375 0 
L 68.109375 0 
L 68.109375 32.671875 
Q 68.109375 37.9375 67.25 40.25 
Q 66.40625 42.578125 64.15625 43.984375 
Q 61.921875 45.40625 58.890625 45.40625 
Q 53.421875 45.40625 49.796875 41.765625 
Q 46.1875 38.140625 46.1875 30.125 
L 46.1875 0 
L 37.40625 0 
L 37.40625 33.6875 
Q 37.40625 39.546875 35.25 42.46875 
Q 33.109375 45.40625 28.21875 45.40625 
Q 24.515625 45.40625 21.359375 43.453125 
Q 18.21875 41.5 16.796875 37.734375 
Q 15.375 33.984375 15.375 26.90625 
L 15.375 0 
z
" id="ArialMT-6d"/>
      <path d="M 4.828125 34.859375 
Q 4.828125 52.6875 14.390625 62.765625 
Q 23.96875 72.859375 39.109375 72.859375 
Q 49.03125 72.859375 56.984375 68.109375 
Q 64.9375 63.375 69.109375 54.90625 
Q 73.296875 46.4375 73.296875 35.6875 
Q 73.296875 24.8125 68.890625 16.21875 
Q 64.5 7.625 56.4375 3.203125 
Q 48.390625 -1.21875 39.0625 -1.21875 
Q 28.953125 -1.21875 20.984375 3.65625 
Q 13.03125 8.546875 8.921875 16.984375 
Q 4.828125 25.4375 4.828125 34.859375 
M 14.59375 34.71875 
Q 14.59375 21.78125 21.546875 14.328125 
Q 28.515625 6.890625 39.015625 6.890625 
Q 49.703125 6.890625 56.609375 14.40625 
Q 63.53125 21.921875 63.53125 35.75 
Q 63.53125 44.484375 60.578125 51 
Q 57.625 57.515625 51.921875 61.109375 
Q 46.234375 64.703125 39.15625 64.703125 
Q 29.109375 64.703125 21.84375 57.78125 
Q 14.59375 50.875 14.59375 34.71875 
" id="ArialMT-4f"/>
      <path d="M 6.640625 61.46875 
L 6.640625 71.578125 
L 15.4375 71.578125 
L 15.4375 61.46875 
z
M 6.640625 0 
L 6.640625 51.859375 
L 15.4375 51.859375 
L 15.4375 0 
z
" id="ArialMT-69"/>
      <path id="ArialMT-20"/>
     </defs>
     <g style="fill:#262626;" transform="translate(219.00636875 118.478)rotate(-90.0)scale(0.088 -0.088)">
      <use transform="translate(0.0 0.109375)" xlink:href="#ArialMT-4f"/>
      <use transform="translate(77.783203125 0.109375)" xlink:href="#ArialMT-43"/>
      <use transform="translate(150.0 0.109375)" xlink:href="#ArialMT-52"/>
      <use transform="translate(222.216796875 0.109375)" xlink:href="#ArialMT-20"/>
      <use transform="translate(250.0 0.109375)" xlink:href="#ArialMT-70"/>
      <use transform="translate(305.615234375 0.109375)" xlink:href="#ArialMT-65"/>
      <use transform="translate(361.23046875 0.109375)" xlink:href="#ArialMT-72"/>
      <use transform="translate(394.53125 0.109375)" xlink:href="#ArialMT-20"/>
      <use transform="translate(422.314453125 0.109375)" xlink:href="#ArialMT-6d"/>
      <use transform="translate(505.615234375 0.109375)" xlink:href="#ArialMT-69"/>
      <use transform="translate(527.83203125 0.109375)" xlink:href="#ArialMT-74"/>
      <use transform="translate(555.615234375 0.109375)" xlink:href="#ArialMT-6f"/>
      <use transform="translate(611.23046875 0.109375)" xlink:href="#ArialMT-20"/>
      <use transform="translate(639.013671875 0.109375)" xlink:href="#ArialMT-76"/>
      <use transform="translate(689.013671875 0.109375)" xlink:href="#ArialMT-6f"/>
      <use transform="translate(744.62890625 0.109375)" xlink:href="#ArialMT-6c"/>
      <use transform="translate(766.845703125 0.109375)" xlink:href="#ArialMT-20"/>
      <use transform="translate(794.62890625 0.109375)" xlink:href="#ArialMT-2f"/>
      <use transform="translate(822.412109375 0.109375)" xlink:href="#Cmmi10-b9"/>
      <use transform="translate(882.6171875 0.109375)" xlink:href="#Cmmi10-6d"/>
      <use transform="translate(976.7134375 38.3734375)scale(0.7)" xlink:href="#Cmr10-33"/>
     </g>
    </g>
   </g>
   <g id="patch_5">
    <path clip-path="url(#pbe435c3031)" d="M 254.911672 136.916 
L 281.726098 136.916 
L 281.726098 103.090319 
L 254.911672 103.090319 
z
" style="fill:#5875a4;stroke:#404040;stroke-linejoin:miter;"/>
   </g>
   <g id="patch_6">
    <path clip-path="url(#pbe435c3031)" d="M 288.429705 136.916 
L 315.244131 136.916 
L 315.244131 70.768177 
L 288.429705 70.768177 
z
" style="fill:#5f9e6e;stroke:#404040;stroke-linejoin:miter;"/>
   </g>
   <g id="patch_7">
    <path clip-path="url(#pbe435c3031)" d="M 321.947738 136.916 
L 348.762164 136.916 
L 348.762164 38.934999 
L 321.947738 38.934999 
z
" style="fill:#b55d60;stroke:#404040;stroke-linejoin:miter;"/>
   </g>
   <g id="patch_8">
    <path clip-path="url(#pbe435c3031)" d="M 355.46577 136.916 
L 382.280197 136.916 
L 382.280197 37.457856 
L 355.46577 37.457856 
z
" style="fill:#857aaa;stroke:#404040;stroke-linejoin:miter;"/>
   </g>
   <g id="LineCollection_1">
    <path clip-path="url(#pbe435c3031)" d="M 268.318885 111.652687 
L 268.318885 97.77692 
" style="fill:none;stroke:#404040;"/>
    <path clip-path="url(#pbe435c3031)" d="M 301.836918 75.471437 
L 301.836918 63.903263 
" style="fill:none;stroke:#404040;"/>
    <path clip-path="url(#pbe435c3031)" d="M 335.354951 48.83197 
L 335.354951 27.918315 
" style="fill:none;stroke:#404040;"/>
    <path clip-path="url(#pbe435c3031)" d="M 368.872984 42.537543 
L 368.872984 32.859681 
" style="fill:none;stroke:#404040;"/>
   </g>
   <g id="line2d_15">
    <defs>
     <path d="M 3 0 
L -3 -0 
" id="m05f0eef456"/>
    </defs>
    <g clip-path="url(#pbe435c3031)">
     <use style="fill:#404040;" x="268.318885156" xlink:href="#m05f0eef456" y="111.652687028"/>
     <use style="fill:#404040;" x="301.836917969" xlink:href="#m05f0eef456" y="75.4714374305"/>
     <use style="fill:#404040;" x="335.354950781" xlink:href="#m05f0eef456" y="48.83197047"/>
     <use style="fill:#404040;" x="368.872983594" xlink:href="#m05f0eef456" y="42.5375425107"/>
    </g>
   </g>
   <g id="line2d_16">
    <g clip-path="url(#pbe435c3031)">
     <use style="fill:#404040;" x="268.318885156" xlink:href="#m05f0eef456" y="97.7769201332"/>
     <use style="fill:#404040;" x="301.836917969" xlink:href="#m05f0eef456" y="63.9032627169"/>
     <use style="fill:#404040;" x="335.354950781" xlink:href="#m05f0eef456" y="27.9183148081"/>
     <use style="fill:#404040;" x="368.872983594" xlink:href="#m05f0eef456" y="32.8596811443"/>
    </g>
   </g>
   <g id="patch_9">
    <path d="M 251.559869 136.916 
L 251.559869 10.368 
" style="fill:none;stroke:#cccccc;stroke-linecap:square;stroke-linejoin:miter;"/>
   </g>
  </g>
  <g id="axes_3">
   <g id="patch_10">
    <path d="M 44.4805 281.932 
L 178.552631 281.932 
L 178.552631 155.384 
L 44.4805 155.384 
z
" style="fill:#ffffff;"/>
   </g>
   <g id="matplotlib.axis_4">
    <g id="xtick_9">
     <g id="line2d_17">
      <g>
       <use style="fill:#262626;stroke:#262626;stroke-width:0.8;" x="61.2395164063" xlink:href="#m1ca851b3e6" y="281.932"/>
      </g>
     </g>
     <g id="text_5">
      <!-- YPD -->
      <defs>
       <path d="M 7.71875 0 
L 7.71875 71.578125 
L 34.71875 71.578125 
Q 41.84375 71.578125 45.609375 70.90625 
Q 50.875 70.015625 54.4375 67.546875 
Q 58.015625 65.09375 60.1875 60.640625 
Q 62.359375 56.203125 62.359375 50.875 
Q 62.359375 41.75 56.546875 35.421875 
Q 50.734375 29.109375 35.546875 29.109375 
L 17.1875 29.109375 
L 17.1875 0 
z
M 17.1875 37.546875 
L 35.6875 37.546875 
Q 44.875 37.546875 48.734375 40.96875 
Q 52.59375 44.390625 52.59375 50.59375 
Q 52.59375 55.078125 50.3125 58.265625 
Q 48.046875 61.46875 44.34375 62.5 
Q 41.9375 63.140625 35.5 63.140625 
L 17.1875 63.140625 
z
" id="ArialMT-50"/>
       <path d="M 27.875 0 
L 27.875 30.328125 
L 0.296875 71.578125 
L 11.8125 71.578125 
L 25.921875 50 
Q 29.828125 43.953125 33.203125 37.890625 
Q 36.421875 43.5 41.015625 50.53125 
L 54.890625 71.578125 
L 65.921875 71.578125 
L 37.359375 30.328125 
L 37.359375 0 
z
" id="ArialMT-59"/>
       <path d="M 7.71875 0 
L 7.71875 71.578125 
L 32.375 71.578125 
Q 40.71875 71.578125 45.125 70.5625 
Q 51.265625 69.140625 55.609375 65.4375 
Q 61.28125 60.640625 64.078125 53.1875 
Q 66.890625 45.75 66.890625 36.1875 
Q 66.890625 28.03125 64.984375 21.734375 
Q 63.09375 15.4375 60.109375 11.296875 
Q 57.125 7.171875 53.578125 4.796875 
Q 50.046875 2.4375 45.046875 1.21875 
Q 40.046875 0 33.546875 0 
z
M 17.1875 8.453125 
L 32.46875 8.453125 
Q 39.546875 8.453125 43.578125 9.765625 
Q 47.609375 11.078125 50 13.484375 
Q 53.375 16.84375 55.25 22.53125 
Q 57.125 28.21875 57.125 36.328125 
Q 57.125 47.5625 53.4375 53.59375 
Q 49.75 59.625 44.484375 61.671875 
Q 40.671875 63.140625 32.234375 63.140625 
L 17.1875 63.140625 
z
" id="ArialMT-44"/>
      </defs>
      <g style="fill:#262626;" transform="translate(53.0145164063 293.25825)scale(0.08 -0.08)">
       <use xlink:href="#ArialMT-59"/>
       <use x="66.69921875" xlink:href="#ArialMT-50"/>
       <use x="133.3984375" xlink:href="#ArialMT-44"/>
      </g>
     </g>
    </g>
    <g id="xtick_10">
     <g id="line2d_18">
      <g>
       <use style="fill:#262626;stroke:#262626;stroke-width:0.8;" x="94.7575492188" xlink:href="#m1ca851b3e6" y="281.932"/>
      </g>
     </g>
     <g id="text_6">
      <!-- YPE -->
      <defs>
       <path d="M 7.90625 0 
L 7.90625 71.578125 
L 59.671875 71.578125 
L 59.671875 63.140625 
L 17.390625 63.140625 
L 17.390625 41.21875 
L 56.984375 41.21875 
L 56.984375 32.8125 
L 17.390625 32.8125 
L 17.390625 8.453125 
L 61.328125 8.453125 
L 61.328125 0 
z
" id="ArialMT-45"/>
      </defs>
      <g style="fill:#262626;" transform="translate(86.7531742188 293.25825)scale(0.08 -0.08)">
       <use xlink:href="#ArialMT-59"/>
       <use x="66.69921875" xlink:href="#ArialMT-50"/>
       <use x="133.3984375" xlink:href="#ArialMT-45"/>
      </g>
     </g>
    </g>
    <g id="xtick_11">
     <g id="line2d_19">
      <g>
       <use style="fill:#262626;stroke:#262626;stroke-width:0.8;" x="128.275582031" xlink:href="#m1ca851b3e6" y="281.932"/>
      </g>
     </g>
     <g id="text_7">
      <!-- YPL -->
      <defs>
       <path d="M 7.328125 0 
L 7.328125 71.578125 
L 16.796875 71.578125 
L 16.796875 8.453125 
L 52.046875 8.453125 
L 52.046875 0 
z
" id="ArialMT-4c"/>
      </defs>
      <g style="fill:#262626;" transform="translate(120.714957031 293.25825)scale(0.08 -0.08)">
       <use xlink:href="#ArialMT-59"/>
       <use x="66.69921875" xlink:href="#ArialMT-50"/>
       <use x="133.3984375" xlink:href="#ArialMT-4c"/>
      </g>
     </g>
    </g>
    <g id="xtick_12">
     <g id="line2d_20">
      <g>
       <use style="fill:#262626;stroke:#262626;stroke-width:0.8;" x="161.793614844" xlink:href="#m1ca851b3e6" y="281.932"/>
      </g>
     </g>
     <g id="text_8">
      <!-- YPR -->
      <g style="fill:#262626;" transform="translate(153.568614844 293.25825)scale(0.08 -0.08)">
       <use xlink:href="#ArialMT-59"/>
       <use x="66.69921875" xlink:href="#ArialMT-50"/>
       <use x="133.3984375" xlink:href="#ArialMT-52"/>
      </g>
     </g>
    </g>
   </g>
   <g id="matplotlib.axis_5">
    <g id="ytick_4">
     <g id="line2d_21">
      <path clip-path="url(#pddd0adef9a)" d="M 44.4805 281.932 
L 178.552631 281.932 
" style="fill:none;stroke:#cccccc;stroke-linecap:round;stroke-width:0.8;"/>
     </g>
     <g id="line2d_22">
      <g>
       <use style="fill:#262626;stroke:#262626;stroke-width:0.8;" x="44.4805" xlink:href="#m1ca851b3e6" y="281.932"/>
      </g>
     </g>
     <g id="text_9">
      <!-- 0.00 -->
      <g style="fill:#262626;" transform="translate(23.31175 284.000125)scale(0.08 -0.08)">
       <use xlink:href="#ArialMT-30"/>
       <use x="55.615234375" xlink:href="#ArialMT-2e"/>
       <use x="83.3984375" xlink:href="#ArialMT-30"/>
       <use x="139.013671875" xlink:href="#ArialMT-30"/>
      </g>
     </g>
    </g>
    <g id="ytick_5">
     <g id="line2d_23">
      <path clip-path="url(#pddd0adef9a)" d="M 44.4805 250.295 
L 178.552631 250.295 
" style="fill:none;stroke:#cccccc;stroke-linecap:round;stroke-width:0.8;"/>
     </g>
     <g id="line2d_24">
      <g>
       <use style="fill:#262626;stroke:#262626;stroke-width:0.8;" x="44.4805" xlink:href="#m1ca851b3e6" y="250.295"/>
      </g>
     </g>
     <g id="text_10">
      <!-- 0.05 -->
      <g style="fill:#262626;" transform="translate(23.31175 252.363125)scale(0.08 -0.08)">
       <use xlink:href="#ArialMT-30"/>
       <use x="55.615234375" xlink:href="#ArialMT-2e"/>
       <use x="83.3984375" xlink:href="#ArialMT-30"/>
       <use x="139.013671875" xlink:href="#ArialMT-35"/>
      </g>
     </g>
    </g>
    <g id="ytick_6">
     <g id="line2d_25">
      <path clip-path="url(#pddd0adef9a)" d="M 44.4805 218.658 
L 178.552631 218.658 
" style="fill:none;stroke:#cccccc;stroke-linecap:round;stroke-width:0.8;"/>
     </g>
     <g id="line2d_26">
      <g>
       <use style="fill:#262626;stroke:#262626;stroke-width:0.8;" x="44.4805" xlink:href="#m1ca851b3e6" y="218.658"/>
      </g>
     </g>
     <g id="text_11">
      <!-- 0.10 -->
      <g style="fill:#262626;" transform="translate(23.31175 220.726125)scale(0.08 -0.08)">
       <use xlink:href="#ArialMT-30"/>
       <use x="55.615234375" xlink:href="#ArialMT-2e"/>
       <use x="83.3984375" xlink:href="#ArialMT-31"/>
       <use x="139.013671875" xlink:href="#ArialMT-30"/>
      </g>
     </g>
    </g>
    <g id="ytick_7">
     <g id="line2d_27">
      <path clip-path="url(#pddd0adef9a)" d="M 44.4805 187.021 
L 178.552631 187.021 
" style="fill:none;stroke:#cccccc;stroke-linecap:round;stroke-width:0.8;"/>
     </g>
     <g id="line2d_28">
      <g>
       <use style="fill:#262626;stroke:#262626;stroke-width:0.8;" x="44.4805" xlink:href="#m1ca851b3e6" y="187.021"/>
      </g>
     </g>
     <g id="text_12">
      <!-- 0.15 -->
      <g style="fill:#262626;" transform="translate(23.31175 189.089125)scale(0.08 -0.08)">
       <use xlink:href="#ArialMT-30"/>
       <use x="55.615234375" xlink:href="#ArialMT-2e"/>
       <use x="83.3984375" xlink:href="#ArialMT-31"/>
       <use x="139.013671875" xlink:href="#ArialMT-35"/>
      </g>
     </g>
    </g>
    <g id="ytick_8">
     <g id="text_13">
      <!-- 0.20 -->
      <defs>
       <path d="M 50.34375 8.453125 
L 50.34375 0 
L 3.03125 0 
Q 2.9375 3.171875 4.046875 6.109375 
Q 5.859375 10.9375 9.828125 15.625 
Q 13.8125 20.3125 21.34375 26.46875 
Q 33.015625 36.03125 37.109375 41.625 
Q 41.21875 47.21875 41.21875 52.203125 
Q 41.21875 57.421875 37.46875 61 
Q 33.734375 64.59375 27.734375 64.59375 
Q 21.390625 64.59375 17.578125 60.78125 
Q 13.765625 56.984375 13.71875 50.25 
L 4.6875 51.171875 
Q 5.609375 61.28125 11.65625 66.578125 
Q 17.71875 71.875 27.9375 71.875 
Q 38.234375 71.875 44.234375 66.15625 
Q 50.25 60.453125 50.25 52 
Q 50.25 47.703125 48.484375 43.546875 
Q 46.734375 39.40625 42.65625 34.8125 
Q 38.578125 30.21875 29.109375 22.21875 
Q 21.1875 15.578125 18.9375 13.203125 
Q 16.703125 10.84375 15.234375 8.453125 
z
" id="ArialMT-32"/>
      </defs>
      <g style="fill:#262626;" transform="translate(23.31175 157.452125)scale(0.08 -0.08)">
       <use xlink:href="#ArialMT-30"/>
       <use x="55.615234375" xlink:href="#ArialMT-2e"/>
       <use x="83.3984375" xlink:href="#ArialMT-32"/>
       <use x="139.013671875" xlink:href="#ArialMT-30"/>
      </g>
     </g>
    </g>
    <g id="text_14">
     <!-- Vol Ratio -->
     <defs>
      <path d="M 40.4375 6.390625 
Q 35.546875 2.25 31.03125 0.53125 
Q 26.515625 -1.171875 21.34375 -1.171875 
Q 12.796875 -1.171875 8.203125 3 
Q 3.609375 7.171875 3.609375 13.671875 
Q 3.609375 17.484375 5.34375 20.625 
Q 7.078125 23.78125 9.890625 25.6875 
Q 12.703125 27.59375 16.21875 28.5625 
Q 18.796875 29.25 24.03125 29.890625 
Q 34.671875 31.15625 39.703125 32.90625 
Q 39.75 34.71875 39.75 35.203125 
Q 39.75 40.578125 37.25 42.78125 
Q 33.890625 45.75 27.25 45.75 
Q 21.046875 45.75 18.09375 43.578125 
Q 15.140625 41.40625 13.71875 35.890625 
L 5.125 37.0625 
Q 6.296875 42.578125 8.984375 45.96875 
Q 11.671875 49.359375 16.75 51.1875 
Q 21.828125 53.03125 28.515625 53.03125 
Q 35.15625 53.03125 39.296875 51.46875 
Q 43.453125 49.90625 45.40625 47.53125 
Q 47.359375 45.171875 48.140625 41.546875 
Q 48.578125 39.3125 48.578125 33.453125 
L 48.578125 21.734375 
Q 48.578125 9.46875 49.140625 6.21875 
Q 49.703125 2.984375 51.375 0 
L 42.1875 0 
Q 40.828125 2.734375 40.4375 6.390625 
M 39.703125 26.03125 
Q 34.90625 24.078125 25.34375 22.703125 
Q 19.921875 21.921875 17.671875 20.9375 
Q 15.4375 19.96875 14.203125 18.09375 
Q 12.984375 16.21875 12.984375 13.921875 
Q 12.984375 10.40625 15.640625 8.0625 
Q 18.3125 5.71875 23.4375 5.71875 
Q 28.515625 5.71875 32.46875 7.9375 
Q 36.421875 10.15625 38.28125 14.015625 
Q 39.703125 17 39.703125 22.796875 
z
" id="ArialMT-61"/>
      <path d="M 28.171875 0 
L 0.4375 71.578125 
L 10.6875 71.578125 
L 29.296875 19.578125 
Q 31.546875 13.328125 33.0625 7.859375 
Q 34.71875 13.71875 36.921875 19.578125 
L 56.25 71.578125 
L 65.921875 71.578125 
L 37.890625 0 
z
" id="ArialMT-56"/>
     </defs>
     <g style="fill:#262626;" transform="translate(16.56275 236.5075625)rotate(-90.0)scale(0.088 -0.088)">
      <use xlink:href="#ArialMT-56"/>
      <use x="66.62109375" xlink:href="#ArialMT-6f"/>
      <use x="122.236328125" xlink:href="#ArialMT-6c"/>
      <use x="144.453125" xlink:href="#ArialMT-20"/>
      <use x="172.236328125" xlink:href="#ArialMT-52"/>
      <use x="244.453125" xlink:href="#ArialMT-61"/>
      <use x="300.068359375" xlink:href="#ArialMT-74"/>
      <use x="327.8515625" xlink:href="#ArialMT-69"/>
      <use x="350.068359375" xlink:href="#ArialMT-6f"/>
     </g>
    </g>
   </g>
   <g id="patch_11">
    <path clip-path="url(#pddd0adef9a)" d="M 47.832303 263.214021 
L 74.64673 263.214021 
L 74.64673 261.339734 
L 67.943123 260.37532 
L 74.64673 259.410907 
L 74.64673 257.195369 
L 47.832303 257.195369 
L 47.832303 259.410907 
L 54.53591 260.37532 
L 47.832303 261.339734 
L 47.832303 263.214021 
z
" style="fill:#5875a4;stroke:#4c4c4c;stroke-linejoin:miter;"/>
   </g>
   <g id="patch_12">
    <path clip-path="url(#pddd0adef9a)" d="M 81.350336 236.989556 
L 108.164762 236.989556 
L 108.164762 231.858681 
L 101.461156 229.445678 
L 108.164762 227.032674 
L 108.164762 221.315731 
L 81.350336 221.315731 
L 81.350336 227.032674 
L 88.053943 229.445678 
L 81.350336 231.858681 
L 81.350336 236.989556 
z
" style="fill:#5f9e6e;stroke:#4c4c4c;stroke-linejoin:miter;"/>
   </g>
   <g id="patch_13">
    <path clip-path="url(#pddd0adef9a)" d="M 114.868369 223.076908 
L 141.682795 223.076908 
L 141.682795 219.226247 
L 134.979189 216.490882 
L 141.682795 213.755517 
L 141.682795 204.231371 
L 114.868369 204.231371 
L 114.868369 213.755517 
L 121.571975 216.490882 
L 114.868369 219.226247 
L 114.868369 223.076908 
z
" style="fill:#b55d60;stroke:#4c4c4c;stroke-linejoin:miter;"/>
   </g>
   <g id="patch_14">
    <path clip-path="url(#pddd0adef9a)" d="M 148.386402 237.406003 
L 175.200828 237.406003 
L 175.200828 234.213718 
L 168.497221 231.050563 
L 175.200828 227.887408 
L 175.200828 217.768663 
L 148.386402 217.768663 
L 148.386402 227.887408 
L 155.090008 231.050563 
L 148.386402 234.213718 
L 148.386402 237.406003 
z
" style="fill:#857aaa;stroke:#4c4c4c;stroke-linejoin:miter;"/>
   </g>
   <g id="line2d_29">
    <path clip-path="url(#pddd0adef9a)" d="M 61.239516 263.214021 
L 61.239516 268.94005 
" style="fill:none;stroke:#4c4c4c;stroke-linecap:round;"/>
   </g>
   <g id="line2d_30">
    <path clip-path="url(#pddd0adef9a)" d="M 61.239516 257.195369 
L 61.239516 249.675075 
" style="fill:none;stroke:#4c4c4c;stroke-linecap:round;"/>
   </g>
   <g id="line2d_31">
    <path clip-path="url(#pddd0adef9a)" d="M 54.53591 268.94005 
L 67.943123 268.94005 
" style="fill:none;stroke:#4c4c4c;stroke-linecap:round;"/>
   </g>
   <g id="line2d_32">
    <path clip-path="url(#pddd0adef9a)" d="M 54.53591 249.675075 
L 67.943123 249.675075 
" style="fill:none;stroke:#4c4c4c;stroke-linecap:round;"/>
   </g>
   <g id="line2d_33">
    <path clip-path="url(#pddd0adef9a)" d="M 54.53591 260.37532 
L 67.943123 260.37532 
" style="fill:none;stroke:#4c4c4c;stroke-linecap:round;"/>
   </g>
   <g id="line2d_34">
    <defs>
     <path d="M -0 3.535534 
L 2.12132 0 
L -0 -3.535534 
L -2.12132 -0 
z
" id="m3e1f08e85f"/>
    </defs>
    <g clip-path="url(#pddd0adef9a)">
     <use style="fill:#4c4c4c;" x="61.2395164063" xlink:href="#m3e1f08e85f" y="243.055295107"/>
     <use style="fill:#4c4c4c;" x="61.2395164063" xlink:href="#m3e1f08e85f" y="246.159433465"/>
    </g>
   </g>
   <g id="line2d_35">
    <path clip-path="url(#pddd0adef9a)" d="M 94.757549 236.989556 
L 94.757549 249.774434 
" style="fill:none;stroke:#4c4c4c;stroke-linecap:round;"/>
   </g>
   <g id="line2d_36">
    <path clip-path="url(#pddd0adef9a)" d="M 94.757549 221.315731 
L 94.757549 201.773181 
" style="fill:none;stroke:#4c4c4c;stroke-linecap:round;"/>
   </g>
   <g id="line2d_37">
    <path clip-path="url(#pddd0adef9a)" d="M 88.053943 249.774434 
L 101.461156 249.774434 
" style="fill:none;stroke:#4c4c4c;stroke-linecap:round;"/>
   </g>
   <g id="line2d_38">
    <path clip-path="url(#pddd0adef9a)" d="M 88.053943 201.773181 
L 101.461156 201.773181 
" style="fill:none;stroke:#4c4c4c;stroke-linecap:round;"/>
   </g>
   <g id="line2d_39">
    <path clip-path="url(#pddd0adef9a)" d="M 88.053943 229.445678 
L 101.461156 229.445678 
" style="fill:none;stroke:#4c4c4c;stroke-linecap:round;"/>
   </g>
   <g id="line2d_40">
    <g clip-path="url(#pddd0adef9a)">
     <use style="fill:#4c4c4c;" x="94.7575492188" xlink:href="#m3e1f08e85f" y="195.99563847"/>
     <use style="fill:#4c4c4c;" x="94.7575492188" xlink:href="#m3e1f08e85f" y="187.418611581"/>
    </g>
   </g>
   <g id="line2d_41">
    <path clip-path="url(#pddd0adef9a)" d="M 128.275582 223.076908 
L 128.275582 244.827836 
" style="fill:none;stroke:#4c4c4c;stroke-linecap:round;"/>
   </g>
   <g id="line2d_42">
    <path clip-path="url(#pddd0adef9a)" d="M 128.275582 204.231371 
L 128.275582 180.547348 
" style="fill:none;stroke:#4c4c4c;stroke-linecap:round;"/>
   </g>
   <g id="line2d_43">
    <path clip-path="url(#pddd0adef9a)" d="M 121.571975 244.827836 
L 134.979189 244.827836 
" style="fill:none;stroke:#4c4c4c;stroke-linecap:round;"/>
   </g>
   <g id="line2d_44">
    <path clip-path="url(#pddd0adef9a)" d="M 121.571975 180.547348 
L 134.979189 180.547348 
" style="fill:none;stroke:#4c4c4c;stroke-linecap:round;"/>
   </g>
   <g id="line2d_45">
    <path clip-path="url(#pddd0adef9a)" d="M 121.571975 216.490882 
L 134.979189 216.490882 
" style="fill:none;stroke:#4c4c4c;stroke-linecap:round;"/>
   </g>
   <g id="line2d_46">
    <g clip-path="url(#pddd0adef9a)">
     <use style="fill:#4c4c4c;" x="128.275582031" xlink:href="#m3e1f08e85f" y="156.256742183"/>
    </g>
   </g>
   <g id="line2d_47">
    <path clip-path="url(#pddd0adef9a)" d="M 161.793615 237.406003 
L 161.793615 260.439176 
" style="fill:none;stroke:#4c4c4c;stroke-linecap:round;"/>
   </g>
   <g id="line2d_48">
    <path clip-path="url(#pddd0adef9a)" d="M 161.793615 217.768663 
L 161.793615 189.799743 
" style="fill:none;stroke:#4c4c4c;stroke-linecap:round;"/>
   </g>
   <g id="line2d_49">
    <path clip-path="url(#pddd0adef9a)" d="M 155.090008 260.439176 
L 168.497221 260.439176 
" style="fill:none;stroke:#4c4c4c;stroke-linecap:round;"/>
   </g>
   <g id="line2d_50">
    <path clip-path="url(#pddd0adef9a)" d="M 155.090008 189.799743 
L 168.497221 189.799743 
" style="fill:none;stroke:#4c4c4c;stroke-linecap:round;"/>
   </g>
   <g id="line2d_51">
    <path clip-path="url(#pddd0adef9a)" d="M 155.090008 231.050563 
L 168.497221 231.050563 
" style="fill:none;stroke:#4c4c4c;stroke-linecap:round;"/>
   </g>
   <g id="line2d_52"/>
   <g id="patch_15">
    <path d="M 44.4805 281.932 
L 44.4805 155.384 
" style="fill:none;stroke:#cccccc;stroke-linecap:square;stroke-linejoin:miter;"/>
   </g>
  </g>
  <g id="axes_4">
   <g id="patch_16">
    <path d="M 251.559869 281.932 
L 385.632 281.932 
L 385.632 155.384 
L 251.559869 155.384 
z
" style="fill:#ffffff;"/>
   </g>
   <g id="matplotlib.axis_6">
    <g id="xtick_13">
     <g id="line2d_53">
      <g>
       <use style="fill:#262626;stroke:#262626;stroke-width:0.8;" x="268.318885156" xlink:href="#m1ca851b3e6" y="281.932"/>
      </g>
     </g>
     <g id="text_15">
      <!-- YPD -->
      <g style="fill:#262626;" transform="translate(260.093885156 293.25825)scale(0.08 -0.08)">
       <use xlink:href="#ArialMT-59"/>
       <use x="66.69921875" xlink:href="#ArialMT-50"/>
       <use x="133.3984375" xlink:href="#ArialMT-44"/>
      </g>
     </g>
    </g>
    <g id="xtick_14">
     <g id="line2d_54">
      <g>
       <use style="fill:#262626;stroke:#262626;stroke-width:0.8;" x="301.836917969" xlink:href="#m1ca851b3e6" y="281.932"/>
      </g>
     </g>
     <g id="text_16">
      <!-- YPE -->
      <g style="fill:#262626;" transform="translate(293.832542969 293.25825)scale(0.08 -0.08)">
       <use xlink:href="#ArialMT-59"/>
       <use x="66.69921875" xlink:href="#ArialMT-50"/>
       <use x="133.3984375" xlink:href="#ArialMT-45"/>
      </g>
     </g>
    </g>
    <g id="xtick_15">
     <g id="line2d_55">
      <g>
       <use style="fill:#262626;stroke:#262626;stroke-width:0.8;" x="335.354950781" xlink:href="#m1ca851b3e6" y="281.932"/>
      </g>
     </g>
     <g id="text_17">
      <!-- YPL -->
      <g style="fill:#262626;" transform="translate(327.794325781 293.25825)scale(0.08 -0.08)">
       <use xlink:href="#ArialMT-59"/>
       <use x="66.69921875" xlink:href="#ArialMT-50"/>
       <use x="133.3984375" xlink:href="#ArialMT-4c"/>
      </g>
     </g>
    </g>
    <g id="xtick_16">
     <g id="line2d_56">
      <g>
       <use style="fill:#262626;stroke:#262626;stroke-width:0.8;" x="368.872983594" xlink:href="#m1ca851b3e6" y="281.932"/>
      </g>
     </g>
     <g id="text_18">
      <!-- YPR -->
      <g style="fill:#262626;" transform="translate(360.647983594 293.25825)scale(0.08 -0.08)">
       <use xlink:href="#ArialMT-59"/>
       <use x="66.69921875" xlink:href="#ArialMT-50"/>
       <use x="133.3984375" xlink:href="#ArialMT-52"/>
      </g>
     </g>
    </g>
   </g>
   <g id="matplotlib.axis_7">
    <g id="ytick_9">
     <g id="line2d_57">
      <path clip-path="url(#p76ddee35ee)" d="M 251.559869 281.932 
L 385.632 281.932 
" style="fill:none;stroke:#cccccc;stroke-linecap:round;stroke-width:0.8;"/>
     </g>
     <g id="line2d_58">
      <g>
       <use style="fill:#262626;stroke:#262626;stroke-width:0.8;" x="251.55986875" xlink:href="#m1ca851b3e6" y="281.932"/>
      </g>
     </g>
     <g id="text_19">
      <!-- 0 -->
      <g style="fill:#262626;" transform="translate(241.51111875 284.000125)scale(0.08 -0.08)">
       <use xlink:href="#ArialMT-30"/>
      </g>
     </g>
    </g>
    <g id="ytick_10">
     <g id="line2d_59">
      <path clip-path="url(#p76ddee35ee)" d="M 251.559869 250.295 
L 385.632 250.295 
" style="fill:none;stroke:#cccccc;stroke-linecap:round;stroke-width:0.8;"/>
     </g>
     <g id="line2d_60">
      <g>
       <use style="fill:#262626;stroke:#262626;stroke-width:0.8;" x="251.55986875" xlink:href="#m1ca851b3e6" y="250.295"/>
      </g>
     </g>
     <g id="text_20">
      <!-- 500 -->
      <g style="fill:#262626;" transform="translate(232.61361875 252.363125)scale(0.08 -0.08)">
       <use xlink:href="#ArialMT-35"/>
       <use x="55.615234375" xlink:href="#ArialMT-30"/>
       <use x="111.23046875" xlink:href="#ArialMT-30"/>
      </g>
     </g>
    </g>
    <g id="ytick_11">
     <g id="line2d_61">
      <path clip-path="url(#p76ddee35ee)" d="M 251.559869 218.658 
L 385.632 218.658 
" style="fill:none;stroke:#cccccc;stroke-linecap:round;stroke-width:0.8;"/>
     </g>
     <g id="line2d_62">
      <g>
       <use style="fill:#262626;stroke:#262626;stroke-width:0.8;" x="251.55986875" xlink:href="#m1ca851b3e6" y="218.658"/>
      </g>
     </g>
     <g id="text_21">
      <!-- 1000 -->
      <g style="fill:#262626;" transform="translate(228.16486875 220.726125)scale(0.08 -0.08)">
       <use xlink:href="#ArialMT-31"/>
       <use x="55.615234375" xlink:href="#ArialMT-30"/>
       <use x="111.23046875" xlink:href="#ArialMT-30"/>
       <use x="166.845703125" xlink:href="#ArialMT-30"/>
      </g>
     </g>
    </g>
    <g id="ytick_12">
     <g id="line2d_63">
      <path clip-path="url(#p76ddee35ee)" d="M 251.559869 187.021 
L 385.632 187.021 
" style="fill:none;stroke:#cccccc;stroke-linecap:round;stroke-width:0.8;"/>
     </g>
     <g id="line2d_64">
      <g>
       <use style="fill:#262626;stroke:#262626;stroke-width:0.8;" x="251.55986875" xlink:href="#m1ca851b3e6" y="187.021"/>
      </g>
     </g>
     <g id="text_22">
      <!-- 1500 -->
      <g style="fill:#262626;" transform="translate(228.16486875 189.089125)scale(0.08 -0.08)">
       <use xlink:href="#ArialMT-31"/>
       <use x="55.615234375" xlink:href="#ArialMT-35"/>
       <use x="111.23046875" xlink:href="#ArialMT-30"/>
       <use x="166.845703125" xlink:href="#ArialMT-30"/>
      </g>
     </g>
    </g>
    <g id="ytick_13">
     <g id="line2d_65">
      <path clip-path="url(#p76ddee35ee)" d="M 251.559869 155.384 
L 385.632 155.384 
" style="fill:none;stroke:#cccccc;stroke-linecap:round;stroke-width:0.8;"/>
     </g>
     <g id="line2d_66">
      <g>
       <use style="fill:#262626;stroke:#262626;stroke-width:0.8;" x="251.55986875" xlink:href="#m1ca851b3e6" y="155.384"/>
      </g>
     </g>
     <g id="text_23">
      <!-- 2000 -->
      <g style="fill:#262626;" transform="translate(228.16486875 157.452125)scale(0.08 -0.08)">
       <use xlink:href="#ArialMT-32"/>
       <use x="55.615234375" xlink:href="#ArialMT-30"/>
       <use x="111.23046875" xlink:href="#ArialMT-30"/>
       <use x="166.845703125" xlink:href="#ArialMT-30"/>
      </g>
     </g>
    </g>
    <g id="text_24">
     <!-- $\Delta \Psi$  -->
     <defs>
      <path d="M 21.390625 0 
L 21.390625 3.515625 
Q 34.1875 3.515625 34.1875 6.6875 
L 34.1875 14.015625 
Q 28.609375 14.75 24.578125 16.921875 
Q 20.5625 19.09375 17.828125 22.609375 
Q 15.09375 26.125 13.703125 30.78125 
Q 12.3125 35.453125 12.3125 40.828125 
Q 12.3125 52.59375 6.59375 52.59375 
Q 6.34375 52.59375 5.96875 52.90625 
Q 5.609375 53.21875 5.609375 53.515625 
L 5.609375 54.296875 
Q 5.609375 54.640625 5.921875 54.90625 
Q 6.25 55.171875 6.59375 55.171875 
L 13.28125 55.171875 
Q 16.453125 55.171875 18.15625 52.90625 
Q 19.875 50.640625 20.4375 47.5625 
Q 21 44.484375 21 41.21875 
Q 21 32.328125 23.875 25.609375 
Q 26.765625 18.890625 34.1875 16.890625 
L 34.1875 61.625 
Q 34.1875 64.796875 21.390625 64.796875 
L 21.390625 68.3125 
L 55.71875 68.3125 
L 55.71875 64.796875 
Q 42.921875 64.796875 42.921875 61.625 
L 42.921875 16.796875 
Q 48.140625 18.109375 51.21875 21.84375 
Q 54.296875 25.59375 55.484375 30.5625 
Q 56.6875 35.546875 56.6875 41.21875 
Q 56.6875 46.578125 58.296875 50.875 
Q 59.90625 55.171875 64.40625 55.171875 
L 71.09375 55.171875 
Q 71.4375 55.171875 71.78125 54.90625 
Q 72.125 54.640625 72.125 54.296875 
L 72.125 53.515625 
Q 72.125 53.171875 71.734375 52.875 
Q 71.34375 52.59375 71.09375 52.59375 
Q 65.375 52.59375 65.375 40.828125 
Q 65.375 35.40625 63.953125 30.734375 
Q 62.546875 26.078125 59.6875 22.53125 
Q 56.84375 19 52.703125 16.828125 
Q 48.578125 14.65625 42.921875 13.921875 
L 42.921875 6.6875 
Q 42.921875 3.515625 55.71875 3.515625 
L 55.71875 0 
z
" id="Cmr10-aa"/>
      <path d="M 5.421875 0 
Q 4.59375 0 4.59375 0.78125 
Q 4.640625 0.875 4.65625 0.921875 
Q 4.6875 0.984375 4.6875 1.125 
L 39.109375 70.515625 
Q 39.546875 71.578125 40.921875 71.578125 
L 42.28125 71.578125 
Q 43.65625 71.578125 44.09375 70.515625 
L 78.515625 1.125 
Q 78.5625 1.03125 78.578125 0.953125 
Q 78.609375 0.875 78.609375 0.78125 
Q 78.609375 0 77.78125 0 
z
M 12.015625 8.015625 
L 64.703125 8.015625 
L 38.375 61.078125 
z
" id="Cmr10-a2"/>
     </defs>
     <g style="fill:#262626;" transform="translate(221.41586875 226.974)rotate(-90.0)scale(0.088 -0.088)">
      <use transform="translate(0.0 0.421875)" xlink:href="#Cmr10-a2"/>
      <use transform="translate(83.30078125 0.421875)" xlink:href="#Cmr10-aa"/>
      <use transform="translate(160.986328125 0.421875)" xlink:href="#ArialMT-20"/>
     </g>
    </g>
   </g>
   <g id="patch_17">
    <path clip-path="url(#p76ddee35ee)" d="M 254.911672 279.301988 
L 281.726098 279.301988 
L 281.726098 279.102956 
L 275.022492 278.015223 
L 281.726098 276.927491 
L 281.726098 272.513733 
L 254.911672 272.513733 
L 254.911672 276.927491 
L 261.615279 278.015223 
L 254.911672 279.102956 
L 254.911672 279.301988 
z
" style="fill:#5875a4;stroke:#4c4c4c;stroke-linejoin:miter;"/>
   </g>
   <g id="patch_18">
    <path clip-path="url(#p76ddee35ee)" d="M 288.429705 263.637517 
L 315.244131 263.637517 
L 315.244131 251.408823 
L 308.540525 245.245999 
L 315.244131 239.083176 
L 315.244131 223.606488 
L 288.429705 223.606488 
L 288.429705 239.083176 
L 295.133311 245.245999 
L 288.429705 251.408823 
L 288.429705 263.637517 
z
" style="fill:#5f9e6e;stroke:#4c4c4c;stroke-linejoin:miter;"/>
   </g>
   <g id="patch_19">
    <path clip-path="url(#p76ddee35ee)" d="M 321.947738 269.991377 
L 348.762164 269.991377 
L 348.762164 263.262801 
L 342.058557 259.395707 
L 348.762164 255.528613 
L 348.762164 243.348693 
L 321.947738 243.348693 
L 321.947738 255.528613 
L 328.651344 259.395707 
L 321.947738 263.262801 
L 321.947738 269.991377 
z
" style="fill:#b55d60;stroke:#4c4c4c;stroke-linejoin:miter;"/>
   </g>
   <g id="patch_20">
    <path clip-path="url(#p76ddee35ee)" d="M 355.46577 268.974412 
L 382.280197 268.974412 
L 382.280197 263.131621 
L 375.57659 257.195783 
L 382.280197 251.259944 
L 382.280197 232.123839 
L 355.46577 232.123839 
L 355.46577 251.259944 
L 362.169377 257.195783 
L 355.46577 263.131621 
L 355.46577 268.974412 
z
" style="fill:#857aaa;stroke:#4c4c4c;stroke-linejoin:miter;"/>
   </g>
   <g id="line2d_67">
    <path clip-path="url(#p76ddee35ee)" d="M 268.318885 279.301988 
L 268.318885 281.780948 
" style="fill:none;stroke:#4c4c4c;stroke-linecap:round;"/>
   </g>
   <g id="line2d_68">
    <path clip-path="url(#p76ddee35ee)" d="M 268.318885 272.513733 
L 268.318885 264.494707 
" style="fill:none;stroke:#4c4c4c;stroke-linecap:round;"/>
   </g>
   <g id="line2d_69">
    <path clip-path="url(#p76ddee35ee)" d="M 261.615279 281.780948 
L 275.022492 281.780948 
" style="fill:none;stroke:#4c4c4c;stroke-linecap:round;"/>
   </g>
   <g id="line2d_70">
    <path clip-path="url(#p76ddee35ee)" d="M 261.615279 264.494707 
L 275.022492 264.494707 
" style="fill:none;stroke:#4c4c4c;stroke-linecap:round;"/>
   </g>
   <g id="line2d_71">
    <path clip-path="url(#p76ddee35ee)" d="M 261.615279 278.015223 
L 275.022492 278.015223 
" style="fill:none;stroke:#4c4c4c;stroke-linecap:round;"/>
   </g>
   <g id="line2d_72">
    <g clip-path="url(#p76ddee35ee)">
     <use style="fill:#4c4c4c;" x="268.318885156" xlink:href="#m3e1f08e85f" y="261.24081029"/>
     <use style="fill:#4c4c4c;" x="268.318885156" xlink:href="#m3e1f08e85f" y="226.935908014"/>
     <use style="fill:#4c4c4c;" x="268.318885156" xlink:href="#m3e1f08e85f" y="251.958846259"/>
     <use style="fill:#4c4c4c;" x="268.318885156" xlink:href="#m3e1f08e85f" y="259.260976111"/>
     <use style="fill:#4c4c4c;" x="268.318885156" xlink:href="#m3e1f08e85f" y="227.743995731"/>
    </g>
   </g>
   <g id="line2d_73">
    <path clip-path="url(#p76ddee35ee)" d="M 301.836918 263.637517 
L 301.836918 279.962627 
" style="fill:none;stroke:#4c4c4c;stroke-linecap:round;"/>
   </g>
   <g id="line2d_74">
    <path clip-path="url(#p76ddee35ee)" d="M 301.836918 223.606488 
L 301.836918 179.431251 
" style="fill:none;stroke:#4c4c4c;stroke-linecap:round;"/>
   </g>
   <g id="line2d_75">
    <path clip-path="url(#p76ddee35ee)" d="M 295.133311 279.962627 
L 308.540525 279.962627 
" style="fill:none;stroke:#4c4c4c;stroke-linecap:round;"/>
   </g>
   <g id="line2d_76">
    <path clip-path="url(#p76ddee35ee)" d="M 295.133311 179.431251 
L 308.540525 179.431251 
" style="fill:none;stroke:#4c4c4c;stroke-linecap:round;"/>
   </g>
   <g id="line2d_77">
    <path clip-path="url(#p76ddee35ee)" d="M 295.133311 245.245999 
L 308.540525 245.245999 
" style="fill:none;stroke:#4c4c4c;stroke-linecap:round;"/>
   </g>
   <g id="line2d_78">
    <g clip-path="url(#p76ddee35ee)">
     <use style="fill:#4c4c4c;" x="301.836917969" xlink:href="#m3e1f08e85f" y="162.608167593"/>
    </g>
   </g>
   <g id="line2d_79">
    <path clip-path="url(#p76ddee35ee)" d="M 335.354951 269.991377 
L 335.354951 280.496746 
" style="fill:none;stroke:#4c4c4c;stroke-linecap:round;"/>
   </g>
   <g id="line2d_80">
    <path clip-path="url(#p76ddee35ee)" d="M 335.354951 243.348693 
L 335.354951 207.523136 
" style="fill:none;stroke:#4c4c4c;stroke-linecap:round;"/>
   </g>
   <g id="line2d_81">
    <path clip-path="url(#p76ddee35ee)" d="M 328.651344 280.496746 
L 342.058557 280.496746 
" style="fill:none;stroke:#4c4c4c;stroke-linecap:round;"/>
   </g>
   <g id="line2d_82">
    <path clip-path="url(#p76ddee35ee)" d="M 328.651344 207.523136 
L 342.058557 207.523136 
" style="fill:none;stroke:#4c4c4c;stroke-linecap:round;"/>
   </g>
   <g id="line2d_83">
    <path clip-path="url(#p76ddee35ee)" d="M 328.651344 259.395707 
L 342.058557 259.395707 
" style="fill:none;stroke:#4c4c4c;stroke-linecap:round;"/>
   </g>
   <g id="line2d_84">
    <g clip-path="url(#p76ddee35ee)">
     <use style="fill:#4c4c4c;" x="335.354950781" xlink:href="#m3e1f08e85f" y="177.973932403"/>
     <use style="fill:#4c4c4c;" x="335.354950781" xlink:href="#m3e1f08e85f" y="170.520010621"/>
     <use style="fill:#4c4c4c;" x="335.354950781" xlink:href="#m3e1f08e85f" y="196.525507058"/>
     <use style="fill:#4c4c4c;" x="335.354950781" xlink:href="#m3e1f08e85f" y="192.763511579"/>
     <use style="fill:#4c4c4c;" x="335.354950781" xlink:href="#m3e1f08e85f" y="189.601822285"/>
    </g>
   </g>
   <g id="line2d_85">
    <path clip-path="url(#p76ddee35ee)" d="M 368.872984 268.974412 
L 368.872984 281.833387 
" style="fill:none;stroke:#4c4c4c;stroke-linecap:round;"/>
   </g>
   <g id="line2d_86">
    <path clip-path="url(#p76ddee35ee)" d="M 368.872984 232.123839 
L 368.872984 177.876311 
" style="fill:none;stroke:#4c4c4c;stroke-linecap:round;"/>
   </g>
   <g id="line2d_87">
    <path clip-path="url(#p76ddee35ee)" d="M 362.169377 281.833387 
L 375.57659 281.833387 
" style="fill:none;stroke:#4c4c4c;stroke-linecap:round;"/>
   </g>
   <g id="line2d_88">
    <path clip-path="url(#p76ddee35ee)" d="M 362.169377 177.876311 
L 375.57659 177.876311 
" style="fill:none;stroke:#4c4c4c;stroke-linecap:round;"/>
   </g>
   <g id="line2d_89">
    <path clip-path="url(#p76ddee35ee)" d="M 362.169377 257.195783 
L 375.57659 257.195783 
" style="fill:none;stroke:#4c4c4c;stroke-linecap:round;"/>
   </g>
   <g id="line2d_90">
    <g clip-path="url(#p76ddee35ee)">
     <use style="fill:#4c4c4c;" x="368.872983594" xlink:href="#m3e1f08e85f" y="173.040990128"/>
     <use style="fill:#4c4c4c;" x="368.872983594" xlink:href="#m3e1f08e85f" y="169.497202426"/>
     <use style="fill:#4c4c4c;" x="368.872983594" xlink:href="#m3e1f08e85f" y="161.160575494"/>
    </g>
   </g>
   <g id="patch_21">
    <path d="M 251.559869 281.932 
L 251.559869 155.384 
" style="fill:none;stroke:#cccccc;stroke-linecap:square;stroke-linejoin:miter;"/>
   </g>
  </g>
 </g>
 <defs>
  <clipPath id="pddd0adef9a">
   <rect height="126.548" width="134.07213125" x="44.4805" y="155.384"/>
  </clipPath>
  <clipPath id="p76ddee35ee">
   <rect height="126.548" width="134.07213125" x="251.55986875" y="155.384"/>
  </clipPath>
  <clipPath id="pbe435c3031">
   <rect height="126.548" width="134.07213125" x="251.55986875" y="10.368"/>
  </clipPath>
 </defs>
</svg>
