<?xml version="1.0" encoding="UTF-8" standalone="no"?>
<!DOCTYPE svg PUBLIC "-//W3C//DTD SVG 1.1//EN"
 "http://www.w3.org/Graphics/SVG/1.1/DTD/svg11.dtd">
<!-- Generated by graphviz version 2.38.0 (20140413.2041)
 -->
<!-- Title: dependencies Pages: 1 -->
<svg width="576pt" height="719pt"
 viewBox="0.00 0.00 576.00 718.64" xmlns="http://www.w3.org/2000/svg" xmlns:xlink="http://www.w3.org/1999/xlink">
<g id="graph0" class="graph" transform="scale(0.63993 0.63993) rotate(0) translate(4 1119)">
<title>dependencies</title>
<polygon fill="white" stroke="none" points="-4,4 -4,-1119 896.099,-1119 896.099,4 -4,4"/>
<!-- tubuleHet -->
<g id="node1" class="node"><title>tubuleHet</title>
<ellipse fill="lightgrey" stroke="black" cx="121.099" cy="-30.2329" rx="32.9303" ry="18"/>
<text text-anchor="middle" x="121.099" y="-27.7329" font-family="Times New Roman,serif" font-size="10.00">tubuleHet</text>
</g>
<!-- tubuleHet/AutoCorCDist_DY_Pop_AllCells.py -->
<g id="node2" class="node"><title>tubuleHet/AutoCorCDist_DY_Pop_AllCells.py</title>
<ellipse fill="lightgrey" stroke="black" cx="121.099" cy="-305.233" rx="121.03" ry="18"/>
<text text-anchor="middle" x="121.099" y="-302.733" font-family="Times New Roman,serif" font-size="10.00">tubuleHet/AutoCorCDist_DY_Pop_AllCells.py</text>
</g>
<!-- tubuleHet/autoCor/AutoPopFunc.py -->
<g id="node3" class="node"><title>tubuleHet/autoCor/AutoPopFunc.py</title>
<ellipse fill="lightgrey" stroke="black" cx="375.099" cy="-214.233" rx="96.5815" ry="18"/>
<text text-anchor="middle" x="375.099" y="-211.733" font-family="Times New Roman,serif" font-size="10.00">tubuleHet/autoCor/AutoPopFunc.py</text>
</g>
<!-- tubuleHet/AutoCorCDist_DY_Pop_AllCells.py&#45;&gt;tubuleHet/autoCor/AutoPopFunc.py -->
<g id="edge1" class="edge"><title>tubuleHet/AutoCorCDist_DY_Pop_AllCells.py&#45;&gt;tubuleHet/autoCor/AutoPopFunc.py</title>
<path fill="none" stroke="black" d="M168.32,-288.542C211.21,-273.054 275.051,-250 320.233,-233.685"/>
<polygon fill="black" stroke="black" points="321.645,-236.896 329.861,-230.208 319.267,-230.312 321.645,-236.896"/>
</g>
<!-- tubuleHet/AutoCorRFP_DY_Pop_AllCells.py -->
<g id="node4" class="node"><title>tubuleHet/AutoCorRFP_DY_Pop_AllCells.py</title>
<ellipse fill="lightgrey" stroke="black" cx="121.099" cy="-214.233" rx="117.966" ry="18"/>
<text text-anchor="middle" x="121.099" y="-211.733" font-family="Times New Roman,serif" font-size="10.00">tubuleHet/AutoCorRFP_DY_Pop_AllCells.py</text>
</g>
<!-- tubuleHet/AutoCorRFP_DY_Pop_AllCells.py&#45;&gt;tubuleHet/autoCor/AutoPopFunc.py -->
<g id="edge2" class="edge"><title>tubuleHet/AutoCorRFP_DY_Pop_AllCells.py&#45;&gt;tubuleHet/autoCor/AutoPopFunc.py</title>
<path fill="none" stroke="black" d="M238.878,-214.233C248.72,-214.233 258.638,-214.233 268.389,-214.233"/>
<polygon fill="black" stroke="black" points="268.48,-217.733 278.48,-214.233 268.48,-210.733 268.48,-217.733"/>
</g>
<!-- tubuleHet/Dist_DY_FourCell.py -->
<g id="node5" class="node"><title>tubuleHet/Dist_DY_FourCell.py</title>
<ellipse fill="lightgrey" stroke="black" cx="121.099" cy="-718.233" rx="85.8896" ry="18"/>
<text text-anchor="middle" x="121.099" y="-715.733" font-family="Times New Roman,serif" font-size="10.00">tubuleHet/Dist_DY_FourCell.py</text>
</g>
<!-- tubuleHet/autoCor/fitDistr.py -->
<g id="node6" class="node"><title>tubuleHet/autoCor/fitDistr.py</title>
<ellipse fill="lightgrey" stroke="black" cx="375.099" cy="-580.233" rx="79.439" ry="18"/>
<text text-anchor="middle" x="375.099" y="-577.733" font-family="Times New Roman,serif" font-size="10.00">tubuleHet/autoCor/fitDistr.py</text>
</g>
<!-- tubuleHet/Dist_DY_FourCell.py&#45;&gt;tubuleHet/autoCor/fitDistr.py -->
<g id="edge3" class="edge"><title>tubuleHet/Dist_DY_FourCell.py&#45;&gt;tubuleHet/autoCor/fitDistr.py</title>
<path fill="none" stroke="black" d="M153.296,-701.488C177.602,-688.413 212.175,-669.755 242.364,-653.233 273.756,-636.052 309.235,-616.377 335.458,-601.785"/>
<polygon fill="black" stroke="black" points="337.291,-604.77 344.326,-596.848 333.886,-598.654 337.291,-604.77"/>
</g>
<!-- tubuleHet/autoCor/vtkfuncs.py -->
<g id="node14" class="node"><title>tubuleHet/autoCor/vtkfuncs.py</title>
<ellipse fill="lightgrey" stroke="black" cx="592.099" cy="-489.233" rx="84.358" ry="18"/>
<text text-anchor="middle" x="592.099" y="-486.733" font-family="Times New Roman,serif" font-size="10.00">tubuleHet/autoCor/vtkfuncs.py</text>
</g>
<!-- tubuleHet/autoCor/fitDistr.py&#45;&gt;tubuleHet/autoCor/vtkfuncs.py -->
<g id="edge9" class="edge"><title>tubuleHet/autoCor/fitDistr.py&#45;&gt;tubuleHet/autoCor/vtkfuncs.py</title>
<path fill="none" stroke="black" d="M413.549,-564.382C449.595,-549.125 504.253,-525.991 543.397,-509.423"/>
<polygon fill="black" stroke="black" points="545.149,-512.482 552.994,-505.361 542.421,-506.036 545.149,-512.482"/>
</g>
<!-- tubuleHet/Dist_DY_OneCell.py -->
<g id="node7" class="node"><title>tubuleHet/Dist_DY_OneCell.py</title>
<ellipse fill="lightgrey" stroke="black" cx="121.099" cy="-626.233" rx="84.358" ry="18"/>
<text text-anchor="middle" x="121.099" y="-623.733" font-family="Times New Roman,serif" font-size="10.00">tubuleHet/Dist_DY_OneCell.py</text>
</g>
<!-- tubuleHet/Dist_DY_OneCell.py&#45;&gt;tubuleHet/autoCor/fitDistr.py -->
<g id="edge4" class="edge"><title>tubuleHet/Dist_DY_OneCell.py&#45;&gt;tubuleHet/autoCor/fitDistr.py</title>
<path fill="none" stroke="black" d="M185.689,-614.625C221.274,-608.13 265.744,-600.012 302.543,-593.295"/>
<polygon fill="black" stroke="black" points="303.496,-596.679 312.705,-591.44 302.239,-589.792 303.496,-596.679"/>
</g>
<!-- tubuleHet/Dist_DY_OneEdgeCell.py -->
<g id="node8" class="node"><title>tubuleHet/Dist_DY_OneEdgeCell.py</title>
<ellipse fill="lightgrey" stroke="black" cx="121.099" cy="-809.233" rx="96.5815" ry="18"/>
<text text-anchor="middle" x="121.099" y="-806.733" font-family="Times New Roman,serif" font-size="10.00">tubuleHet/Dist_DY_OneEdgeCell.py</text>
</g>
<!-- tubuleHet/MakeInpRFP.py -->
<g id="node9" class="node"><title>tubuleHet/MakeInpRFP.py</title>
<ellipse fill="lightgrey" stroke="black" cx="121.099" cy="-443.233" rx="73.6658" ry="18"/>
<text text-anchor="middle" x="121.099" y="-440.733" font-family="Times New Roman,serif" font-size="10.00">tubuleHet/MakeInpRFP.py</text>
</g>
<!-- tubuleHet/autoCor/fitDistRFP.py -->
<g id="node10" class="node"><title>tubuleHet/autoCor/fitDistRFP.py</title>
<ellipse fill="lightgrey" stroke="black" cx="375.099" cy="-489.233" rx="87.9221" ry="18"/>
<text text-anchor="middle" x="375.099" y="-486.733" font-family="Times New Roman,serif" font-size="10.00">tubuleHet/autoCor/fitDistRFP.py</text>
</g>
<!-- tubuleHet/MakeInpRFP.py&#45;&gt;tubuleHet/autoCor/fitDistRFP.py -->
<g id="edge5" class="edge"><title>tubuleHet/MakeInpRFP.py&#45;&gt;tubuleHet/autoCor/fitDistRFP.py</title>
<path fill="none" stroke="black" d="M180.546,-453.902C215.782,-460.334 261.025,-468.592 298.908,-475.508"/>
<polygon fill="black" stroke="black" points="298.409,-478.974 308.875,-477.327 299.666,-472.088 298.409,-478.974"/>
</g>
<!-- tubuleHet/autoCor/fitDistRFP.py&#45;&gt;tubuleHet/autoCor/vtkfuncs.py -->
<g id="edge8" class="edge"><title>tubuleHet/autoCor/fitDistRFP.py&#45;&gt;tubuleHet/autoCor/vtkfuncs.py</title>
<path fill="none" stroke="black" d="M462.928,-489.233C474.376,-489.233 486.148,-489.233 497.7,-489.233"/>
<polygon fill="black" stroke="black" points="497.781,-492.733 507.781,-489.233 497.781,-485.733 497.781,-492.733"/>
</g>
<!-- tubuleHet/MakeInputForLags.py -->
<g id="node11" class="node"><title>tubuleHet/MakeInputForLags.py</title>
<ellipse fill="lightgrey" stroke="black" cx="121.099" cy="-534.233" rx="87.9221" ry="18"/>
<text text-anchor="middle" x="121.099" y="-531.733" font-family="Times New Roman,serif" font-size="10.00">tubuleHet/MakeInputForLags.py</text>
</g>
<!-- tubuleHet/MakeInputForLags.py&#45;&gt;tubuleHet/autoCor/fitDistr.py -->
<g id="edge6" class="edge"><title>tubuleHet/MakeInputForLags.py&#45;&gt;tubuleHet/autoCor/fitDistr.py</title>
<path fill="none" stroke="black" d="M187.323,-546.139C222.648,-552.587 266.353,-560.565 302.603,-567.182"/>
<polygon fill="black" stroke="black" points="302.15,-570.657 312.616,-569.01 303.407,-563.771 302.15,-570.657"/>
</g>
<!-- tubuleHet/PowerSD.py -->
<g id="node12" class="node"><title>tubuleHet/PowerSD.py</title>
<ellipse fill="lightgrey" stroke="black" cx="121.099" cy="-122.233" rx="64.3289" ry="18"/>
<text text-anchor="middle" x="121.099" y="-119.733" font-family="Times New Roman,serif" font-size="10.00">tubuleHet/PowerSD.py</text>
</g>
<!-- tubuleHet/PowerSD.py&#45;&gt;tubuleHet/autoCor/AutoPopFunc.py -->
<g id="edge7" class="edge"><title>tubuleHet/PowerSD.py&#45;&gt;tubuleHet/autoCor/AutoPopFunc.py</title>
<path fill="none" stroke="black" d="M160.922,-136.406C203.675,-152.015 272.693,-177.212 320.567,-194.689"/>
<polygon fill="black" stroke="black" points="319.55,-198.044 330.144,-198.186 321.951,-191.469 319.55,-198.044"/>
</g>
<!-- tubuleHet/autoCor -->
<g id="node13" class="node"><title>tubuleHet/autoCor</title>
<ellipse fill="lightgrey" stroke="black" cx="121.099" cy="-901.233" rx="54.3144" ry="18"/>
<text text-anchor="middle" x="121.099" y="-898.733" font-family="Times New Roman,serif" font-size="10.00">tubuleHet/autoCor</text>
</g>
<!-- tubuleHet/autoCor/graphfuncs.py -->
<g id="node15" class="node"><title>tubuleHet/autoCor/graphfuncs.py</title>
<ellipse fill="lightgrey" stroke="black" cx="802.099" cy="-489.233" rx="90.1309" ry="18"/>
<text text-anchor="middle" x="802.099" y="-486.733" font-family="Times New Roman,serif" font-size="10.00">tubuleHet/autoCor/graphfuncs.py</text>
</g>
<!-- tubuleHet/autoCor/vtkfuncs.py&#45;&gt;tubuleHet/autoCor/graphfuncs.py -->
<g id="edge10" class="edge"><title>tubuleHet/autoCor/vtkfuncs.py&#45;&gt;tubuleHet/autoCor/graphfuncs.py</title>
<path fill="none" stroke="black" d="M676.502,-489.233C684.778,-489.233 693.236,-489.233 701.653,-489.233"/>
<polygon fill="black" stroke="black" points="701.886,-492.733 711.886,-489.233 701.886,-485.733 701.886,-492.733"/>
</g>
<!-- tubuleHet/autoCor/lagsfun.py -->
<g id="node16" class="node"><title>tubuleHet/autoCor/lagsfun.py</title>
<ellipse fill="lightgrey" stroke="black" cx="592.099" cy="-351.233" rx="80.7939" ry="18"/>
<text text-anchor="middle" x="592.099" y="-348.733" font-family="Times New Roman,serif" font-size="10.00">tubuleHet/autoCor/lagsfun.py</text>
</g>
<!-- tubuleHet/lagsplotnew.py -->
<g id="node17" class="node"><title>tubuleHet/lagsplotnew.py</title>
<ellipse fill="lightgrey" stroke="black" cx="375.099" cy="-305.233" rx="71.4572" ry="18"/>
<text text-anchor="middle" x="375.099" y="-302.733" font-family="Times New Roman,serif" font-size="10.00">tubuleHet/lagsplotnew.py</text>
</g>
<!-- tubuleHet/lagsplotnew.py&#45;&gt;tubuleHet/autoCor/lagsfun.py -->
<g id="edge11" class="edge"><title>tubuleHet/lagsplotnew.py&#45;&gt;tubuleHet/autoCor/lagsfun.py</title>
<path fill="none" stroke="black" d="M430.075,-316.781C458.349,-322.831 493.256,-330.299 523.333,-336.734"/>
<polygon fill="black" stroke="black" points="522.82,-340.204 533.331,-338.873 524.285,-333.358 522.82,-340.204"/>
</g>
<!-- tubuleHet/lagsplotrfp.py -->
<g id="node18" class="node"><title>tubuleHet/lagsplotrfp.py</title>
<ellipse fill="lightgrey" stroke="black" cx="375.099" cy="-397.233" rx="68.0705" ry="18"/>
<text text-anchor="middle" x="375.099" y="-394.733" font-family="Times New Roman,serif" font-size="10.00">tubuleHet/lagsplotrfp.py</text>
</g>
<!-- tubuleHet/lagsplotrfp.py&#45;&gt;tubuleHet/autoCor/vtkfuncs.py -->
<g id="edge13" class="edge"><title>tubuleHet/lagsplotrfp.py&#45;&gt;tubuleHet/autoCor/vtkfuncs.py</title>
<path fill="none" stroke="black" d="M412.085,-412.632C448.385,-428.164 504.594,-452.217 544.329,-469.22"/>
<polygon fill="black" stroke="black" points="542.978,-472.449 553.549,-473.165 545.732,-466.013 542.978,-472.449"/>
</g>
<!-- tubuleHet/lagsplotrfp.py&#45;&gt;tubuleHet/autoCor/lagsfun.py -->
<g id="edge12" class="edge"><title>tubuleHet/lagsplotrfp.py&#45;&gt;tubuleHet/autoCor/lagsfun.py</title>
<path fill="none" stroke="black" d="M428.694,-385.98C457.175,-379.886 492.685,-372.289 523.231,-365.753"/>
<polygon fill="black" stroke="black" points="524.336,-369.096 533.382,-363.582 522.872,-362.251 524.336,-369.096"/>
</g>
<!-- tubuleHet/visualize_real_random.py -->
<g id="node19" class="node"><title>tubuleHet/visualize_real_random.py</title>
<ellipse fill="lightgrey" stroke="black" cx="121.099" cy="-993.233" rx="94.55" ry="18"/>
<text text-anchor="middle" x="121.099" y="-990.733" font-family="Times New Roman,serif" font-size="10.00">tubuleHet/visualize_real_random.py</text>
</g>
<!-- mombud/vtk_viz/vtkvizfuncs.py -->
<g id="node20" class="node"><title>mombud/vtk_viz/vtkvizfuncs.py</title>
<ellipse fill="none" stroke="black" cx="375.099" cy="-1084.23" rx="85.8896" ry="18"/>
<text text-anchor="middle" x="375.099" y="-1081.73" font-family="Times New Roman,serif" font-size="10.00">mombud/vtk_viz/vtkvizfuncs.py</text>
</g>
<!-- tubuleHet/visualize_real_random.py&#45;&gt;mombud/vtk_viz/vtkvizfuncs.py -->
<g id="edge14" class="edge"><title>tubuleHet/visualize_real_random.py&#45;&gt;mombud/vtk_viz/vtkvizfuncs.py</title>
<path fill="none" stroke="black" d="M166.282,-1009.19C209.639,-1024.84 275.767,-1048.72 321.741,-1065.33"/>
<polygon fill="black" stroke="black" points="320.635,-1068.65 331.23,-1068.75 323.013,-1062.06 320.635,-1068.65"/>
</g>
<!-- pipeline/make_networkx.py -->
<g id="node21" class="node"><title>pipeline/make_networkx.py</title>
<ellipse fill="none" stroke="black" cx="375.099" cy="-993.233" rx="73.6658" ry="18"/>
<text text-anchor="middle" x="375.099" y="-990.733" font-family="Times New Roman,serif" font-size="10.00">pipeline/make_networkx.py</text>
</g>
<!-- tubuleHet/visualize_real_random.py&#45;&gt;pipeline/make_networkx.py -->
<g id="edge15" class="edge"><title>tubuleHet/visualize_real_random.py&#45;&gt;pipeline/make_networkx.py</title>
<path fill="none" stroke="black" d="M215.935,-993.233C240.668,-993.233 267.174,-993.233 291.281,-993.233"/>
<polygon fill="black" stroke="black" points="291.453,-996.733 301.453,-993.233 291.453,-989.733 291.453,-996.733"/>
</g>
<!-- wrappers.py -->
<g id="node22" class="node"><title>wrappers.py</title>
<ellipse fill="none" stroke="black" cx="375.099" cy="-901.233" rx="38.7041" ry="18"/>
<text text-anchor="middle" x="375.099" y="-898.733" font-family="Times New Roman,serif" font-size="10.00">wrappers.py</text>
</g>
<!-- tubuleHet/visualize_real_random.py&#45;&gt;wrappers.py -->
<g id="edge16" class="edge"><title>tubuleHet/visualize_real_random.py&#45;&gt;wrappers.py</title>
<path fill="none" stroke="black" d="M165.706,-977.313C213.216,-959.968 288.555,-932.463 334.447,-915.709"/>
<polygon fill="black" stroke="black" points="335.858,-918.92 344.051,-912.203 333.457,-912.345 335.858,-918.92"/>
</g>
</g>
</svg>
