<?xml version="1.0" encoding="UTF-8" standalone="no"?>
<!DOCTYPE svg PUBLIC "-//W3C//DTD SVG 1.1//EN"
 "http://www.w3.org/Graphics/SVG/1.1/DTD/svg11.dtd">
<!-- Generated by graphviz version 2.38.0 (20140413.2041)
 -->
<!-- Title: dependencies Pages: 1 -->
<svg width="576pt" height="718pt"
 viewBox="0.00 0.00 576.00 717.67" xmlns="http://www.w3.org/2000/svg" xmlns:xlink="http://www.w3.org/1999/xlink">
<g id="graph0" class="graph" transform="scale(0.812765 0.812765) rotate(0) translate(4 879)">
<title>dependencies</title>
<polygon fill="white" stroke="none" points="-4,4 -4,-879 704.692,-879 704.692,4 -4,4"/>
<!-- tubuleHet -->
<g id="node1" class="node"><title>tubuleHet</title>
<ellipse fill="lightgrey" stroke="black" cx="96.692" cy="-27.5" rx="32.9303" ry="18"/>
<text text-anchor="middle" x="96.692" y="-25" font-family="Times New Roman,serif" font-size="10.00">tubuleHet</text>
</g>
<!-- tubuleHet/AutoCorCDist_DY_Pop_AllCells.py -->
<g id="node2" class="node"><title>tubuleHet/AutoCorCDist_DY_Pop_AllCells.py</title>
<ellipse fill="lightgrey" stroke="black" cx="350.692" cy="-601.5" rx="121.03" ry="18"/>
<text text-anchor="middle" x="350.692" y="-599" font-family="Times New Roman,serif" font-size="10.00">tubuleHet/AutoCorCDist_DY_Pop_AllCells.py</text>
</g>
<!-- tubuleHet/autoCor/AutoPopFunc.py -->
<g id="node3" class="node"><title>tubuleHet/autoCor/AutoPopFunc.py</title>
<ellipse fill="lightgrey" stroke="black" cx="603.692" cy="-560.5" rx="96.5815" ry="18"/>
<text text-anchor="middle" x="603.692" y="-558" font-family="Times New Roman,serif" font-size="10.00">tubuleHet/autoCor/AutoPopFunc.py</text>
</g>
<!-- tubuleHet/AutoCorCDist_DY_Pop_AllCells.py&#45;&gt;tubuleHet/autoCor/AutoPopFunc.py -->
<g id="edge1" class="edge"><title>tubuleHet/AutoCorCDist_DY_Pop_AllCells.py&#45;&gt;tubuleHet/autoCor/AutoPopFunc.py</title>
<path fill="none" stroke="black" d="M432.838,-588.245C460.774,-583.682 492.076,-578.569 520.124,-573.987"/>
<polygon fill="black" stroke="black" points="520.993,-577.392 530.298,-572.325 519.865,-570.483 520.993,-577.392"/>
</g>
<!-- wrappers.py -->
<g id="node4" class="node"><title>wrappers.py</title>
<ellipse fill="none" stroke="black" cx="603.692" cy="-437.5" rx="38.7041" ry="18"/>
<text text-anchor="middle" x="603.692" y="-435" font-family="Times New Roman,serif" font-size="10.00">wrappers.py</text>
</g>
<!-- tubuleHet/AutoCorCDist_DY_Pop_AllCells.py&#45;&gt;wrappers.py -->
<g id="edge2" class="edge"><title>tubuleHet/AutoCorCDist_DY_Pop_AllCells.py&#45;&gt;wrappers.py</title>
<path fill="none" stroke="black" d="M395.711,-584.692C419.13,-574.94 447.963,-561.608 471.957,-546.5 512.295,-521.1 553.707,-484.431 578.822,-460.78"/>
<polygon fill="black" stroke="black" points="581.239,-463.312 586.074,-453.885 576.415,-458.239 581.239,-463.312"/>
</g>
<!-- tubuleHet/AutoCorRFP_DY_Pop_AllCells.py -->
<g id="node5" class="node"><title>tubuleHet/AutoCorRFP_DY_Pop_AllCells.py</title>
<ellipse fill="lightgrey" stroke="black" cx="350.692" cy="-683.5" rx="117.966" ry="18"/>
<text text-anchor="middle" x="350.692" y="-681" font-family="Times New Roman,serif" font-size="10.00">tubuleHet/AutoCorRFP_DY_Pop_AllCells.py</text>
</g>
<!-- tubuleHet/AutoCorRFP_DY_Pop_AllCells.py&#45;&gt;tubuleHet/autoCor/AutoPopFunc.py -->
<g id="edge3" class="edge"><title>tubuleHet/AutoCorRFP_DY_Pop_AllCells.py&#45;&gt;tubuleHet/autoCor/AutoPopFunc.py</title>
<path fill="none" stroke="black" d="M390.109,-666.528C413.836,-655.898 444.827,-641.748 471.957,-628.5 502.361,-613.652 536.244,-595.996 561.896,-582.397"/>
<polygon fill="black" stroke="black" points="563.766,-585.367 570.953,-577.583 560.48,-579.186 563.766,-585.367"/>
</g>
<!-- tubuleHet/Dist_DY_FourCell.py -->
<g id="node6" class="node"><title>tubuleHet/Dist_DY_FourCell.py</title>
<ellipse fill="lightgrey" stroke="black" cx="350.692" cy="-27.5" rx="85.8896" ry="18"/>
<text text-anchor="middle" x="350.692" y="-25" font-family="Times New Roman,serif" font-size="10.00">tubuleHet/Dist_DY_FourCell.py</text>
</g>
<!-- tubuleHet/autoCor/fitDistr.py -->
<g id="node7" class="node"><title>tubuleHet/autoCor/fitDistr.py</title>
<ellipse fill="lightgrey" stroke="black" cx="603.692" cy="-150.5" rx="79.439" ry="18"/>
<text text-anchor="middle" x="603.692" y="-148" font-family="Times New Roman,serif" font-size="10.00">tubuleHet/autoCor/fitDistr.py</text>
</g>
<!-- tubuleHet/Dist_DY_FourCell.py&#45;&gt;tubuleHet/autoCor/fitDistr.py -->
<g id="edge4" class="edge"><title>tubuleHet/Dist_DY_FourCell.py&#45;&gt;tubuleHet/autoCor/fitDistr.py</title>
<path fill="none" stroke="black" d="M388.497,-43.7501C412.42,-54.4556 444.209,-68.9495 471.957,-82.5 502.771,-97.5479 537.158,-115.48 562.928,-129.15"/>
<polygon fill="black" stroke="black" points="561.538,-132.375 572.01,-133.981 564.825,-126.195 561.538,-132.375"/>
</g>
<!-- tubuleHet/Dist_DY_OneCell.py -->
<g id="node8" class="node"><title>tubuleHet/Dist_DY_OneCell.py</title>
<ellipse fill="lightgrey" stroke="black" cx="350.692" cy="-191.5" rx="84.358" ry="18"/>
<text text-anchor="middle" x="350.692" y="-189" font-family="Times New Roman,serif" font-size="10.00">tubuleHet/Dist_DY_OneCell.py</text>
</g>
<!-- tubuleHet/Dist_DY_OneCell.py&#45;&gt;wrappers.py -->
<g id="edge7" class="edge"><title>tubuleHet/Dist_DY_OneCell.py&#45;&gt;wrappers.py</title>
<path fill="none" stroke="black" d="M406.439,-205.088C429.682,-213.455 455.218,-226.528 471.957,-246.5 512.062,-294.352 469.324,-332.828 507.151,-382.5 521.102,-400.819 543.042,-414.068 562.381,-422.965"/>
<polygon fill="black" stroke="black" points="561.053,-426.204 571.619,-426.986 563.847,-419.786 561.053,-426.204"/>
</g>
<!-- tubuleHet/Dist_DY_OneCell.py&#45;&gt;tubuleHet/autoCor/fitDistr.py -->
<g id="edge6" class="edge"><title>tubuleHet/Dist_DY_OneCell.py&#45;&gt;tubuleHet/autoCor/fitDistr.py</title>
<path fill="none" stroke="black" d="M417.968,-180.674C451.941,-175.125 493.428,-168.348 528.472,-162.624"/>
<polygon fill="black" stroke="black" points="529.343,-166.028 538.648,-160.961 528.215,-159.119 529.343,-166.028"/>
</g>
<!-- pipeline/make_networkx.py -->
<g id="node9" class="node"><title>pipeline/make_networkx.py</title>
<ellipse fill="none" stroke="black" cx="603.692" cy="-273.5" rx="73.6658" ry="18"/>
<text text-anchor="middle" x="603.692" y="-271" font-family="Times New Roman,serif" font-size="10.00">pipeline/make_networkx.py</text>
</g>
<!-- tubuleHet/Dist_DY_OneCell.py&#45;&gt;pipeline/make_networkx.py -->
<g id="edge5" class="edge"><title>tubuleHet/Dist_DY_OneCell.py&#45;&gt;pipeline/make_networkx.py</title>
<path fill="none" stroke="black" d="M397.729,-206.54C440.449,-220.496 504.037,-241.27 549.04,-255.972"/>
<polygon fill="black" stroke="black" points="548.037,-259.327 558.63,-259.105 550.211,-252.673 548.037,-259.327"/>
</g>
<!-- tubuleHet/Dist_DY_OneEdgeCell.py -->
<g id="node10" class="node"><title>tubuleHet/Dist_DY_OneEdgeCell.py</title>
<ellipse fill="lightgrey" stroke="black" cx="96.692" cy="-293.5" rx="96.5815" ry="18"/>
<text text-anchor="middle" x="96.692" y="-291" font-family="Times New Roman,serif" font-size="10.00">tubuleHet/Dist_DY_OneEdgeCell.py</text>
</g>
<!-- tubuleHet/MakeInpRFP.py -->
<g id="node11" class="node"><title>tubuleHet/MakeInpRFP.py</title>
<ellipse fill="lightgrey" stroke="black" cx="96.692" cy="-109.5" rx="73.6658" ry="18"/>
<text text-anchor="middle" x="96.692" y="-107" font-family="Times New Roman,serif" font-size="10.00">tubuleHet/MakeInpRFP.py</text>
</g>
<!-- tubuleHet/autoCor/fitDistRFP.py -->
<g id="node12" class="node"><title>tubuleHet/autoCor/fitDistRFP.py</title>
<ellipse fill="lightgrey" stroke="black" cx="350.692" cy="-109.5" rx="87.9221" ry="18"/>
<text text-anchor="middle" x="350.692" y="-107" font-family="Times New Roman,serif" font-size="10.00">tubuleHet/autoCor/fitDistRFP.py</text>
</g>
<!-- tubuleHet/MakeInpRFP.py&#45;&gt;tubuleHet/autoCor/fitDistRFP.py -->
<g id="edge8" class="edge"><title>tubuleHet/MakeInpRFP.py&#45;&gt;tubuleHet/autoCor/fitDistRFP.py</title>
<path fill="none" stroke="black" d="M170.581,-109.5C196.102,-109.5 225.182,-109.5 252.378,-109.5"/>
<polygon fill="black" stroke="black" points="252.698,-113 262.698,-109.5 252.698,-106 252.698,-113"/>
</g>
<!-- tubuleHet/autoCor/fitDistRFP.py&#45;&gt;tubuleHet/autoCor/fitDistr.py -->
<g id="edge14" class="edge"><title>tubuleHet/autoCor/fitDistRFP.py&#45;&gt;tubuleHet/autoCor/fitDistr.py</title>
<path fill="none" stroke="black" d="M419.947,-120.649C453.639,-126.153 494.337,-132.801 528.765,-138.424"/>
<polygon fill="black" stroke="black" points="528.332,-141.9 538.765,-140.058 529.46,-134.991 528.332,-141.9"/>
</g>
<!-- tubuleHet/MakeInputForLags.py -->
<g id="node13" class="node"><title>tubuleHet/MakeInputForLags.py</title>
<ellipse fill="lightgrey" stroke="black" cx="350.692" cy="-273.5" rx="87.9221" ry="18"/>
<text text-anchor="middle" x="350.692" y="-271" font-family="Times New Roman,serif" font-size="10.00">tubuleHet/MakeInputForLags.py</text>
</g>
<!-- tubuleHet/MakeInputForLags.py&#45;&gt;wrappers.py -->
<g id="edge11" class="edge"><title>tubuleHet/MakeInputForLags.py&#45;&gt;wrappers.py</title>
<path fill="none" stroke="black" d="M400.075,-288.463C423.583,-297.421 451.169,-310.594 471.957,-328.5 493.662,-347.196 486.343,-362.811 507.151,-382.5 524.039,-398.479 546.412,-411.678 565.263,-421.137"/>
<polygon fill="black" stroke="black" points="563.947,-424.389 574.472,-425.606 567.004,-418.091 563.947,-424.389"/>
</g>
<!-- tubuleHet/MakeInputForLags.py&#45;&gt;tubuleHet/autoCor/fitDistr.py -->
<g id="edge10" class="edge"><title>tubuleHet/MakeInputForLags.py&#45;&gt;tubuleHet/autoCor/fitDistr.py</title>
<path fill="none" stroke="black" d="M388.497,-257.25C412.42,-246.544 444.209,-232.051 471.957,-218.5 502.771,-203.452 537.158,-185.52 562.928,-171.85"/>
<polygon fill="black" stroke="black" points="564.825,-174.805 572.01,-167.019 561.538,-168.625 564.825,-174.805"/>
</g>
<!-- tubuleHet/MakeInputForLags.py&#45;&gt;pipeline/make_networkx.py -->
<g id="edge9" class="edge"><title>tubuleHet/MakeInputForLags.py&#45;&gt;pipeline/make_networkx.py</title>
<path fill="none" stroke="black" d="M438.423,-273.5C464.693,-273.5 493.476,-273.5 519.508,-273.5"/>
<polygon fill="black" stroke="black" points="519.717,-277 529.717,-273.5 519.717,-270 519.717,-277"/>
</g>
<!-- tubuleHet/PowerSD.py -->
<g id="node14" class="node"><title>tubuleHet/PowerSD.py</title>
<ellipse fill="lightgrey" stroke="black" cx="350.692" cy="-519.5" rx="64.3289" ry="18"/>
<text text-anchor="middle" x="350.692" y="-517" font-family="Times New Roman,serif" font-size="10.00">tubuleHet/PowerSD.py</text>
</g>
<!-- tubuleHet/PowerSD.py&#45;&gt;tubuleHet/autoCor/AutoPopFunc.py -->
<g id="edge12" class="edge"><title>tubuleHet/PowerSD.py&#45;&gt;tubuleHet/autoCor/AutoPopFunc.py</title>
<path fill="none" stroke="black" d="M406.465,-528.447C439.833,-533.898 483.106,-540.966 520.521,-547.078"/>
<polygon fill="black" stroke="black" points="519.967,-550.533 530.4,-548.691 521.095,-543.625 519.967,-550.533"/>
</g>
<!-- tubuleHet/PowerSD.py&#45;&gt;wrappers.py -->
<g id="edge13" class="edge"><title>tubuleHet/PowerSD.py&#45;&gt;wrappers.py</title>
<path fill="none" stroke="black" d="M393.14,-505.959C439.839,-490.703 515.277,-466.058 561.763,-450.871"/>
<polygon fill="black" stroke="black" points="563.086,-454.121 571.505,-447.689 560.912,-447.467 563.086,-454.121"/>
</g>
<!-- tubuleHet/autoCor -->
<g id="node15" class="node"><title>tubuleHet/autoCor</title>
<ellipse fill="lightgrey" stroke="black" cx="96.692" cy="-580.5" rx="54.3144" ry="18"/>
<text text-anchor="middle" x="96.692" y="-578" font-family="Times New Roman,serif" font-size="10.00">tubuleHet/autoCor</text>
</g>
<!-- tubuleHet/autoCor/graphfuncs.py -->
<g id="node16" class="node"><title>tubuleHet/autoCor/graphfuncs.py</title>
<ellipse fill="lightgrey" stroke="black" cx="350.692" cy="-765.5" rx="90.1309" ry="18"/>
<text text-anchor="middle" x="350.692" y="-763" font-family="Times New Roman,serif" font-size="10.00">tubuleHet/autoCor/graphfuncs.py</text>
</g>
<!-- tubuleHet/autoCor/vtkfuncs.py -->
<g id="node17" class="node"><title>tubuleHet/autoCor/vtkfuncs.py</title>
<ellipse fill="lightgrey" stroke="black" cx="96.692" cy="-765.5" rx="84.358" ry="18"/>
<text text-anchor="middle" x="96.692" y="-763" font-family="Times New Roman,serif" font-size="10.00">tubuleHet/autoCor/vtkfuncs.py</text>
</g>
<!-- tubuleHet/autoCor/vtkfuncs.py&#45;&gt;tubuleHet/autoCor/graphfuncs.py -->
<g id="edge15" class="edge"><title>tubuleHet/autoCor/vtkfuncs.py&#45;&gt;tubuleHet/autoCor/graphfuncs.py</title>
<path fill="none" stroke="black" d="M180.905,-765.5C203.134,-765.5 227.379,-765.5 250.381,-765.5"/>
<polygon fill="black" stroke="black" points="250.5,-769 260.5,-765.5 250.5,-762 250.5,-769"/>
</g>
<!-- tubuleHet/lagsplotnew.py -->
<g id="node18" class="node"><title>tubuleHet/lagsplotnew.py</title>
<ellipse fill="lightgrey" stroke="black" cx="350.692" cy="-437.5" rx="71.4572" ry="18"/>
<text text-anchor="middle" x="350.692" y="-435" font-family="Times New Roman,serif" font-size="10.00">tubuleHet/lagsplotnew.py</text>
</g>
<!-- tubuleHet/lagsplotnew.py&#45;&gt;tubuleHet/autoCor/AutoPopFunc.py -->
<g id="edge16" class="edge"><title>tubuleHet/lagsplotnew.py&#45;&gt;tubuleHet/autoCor/AutoPopFunc.py</title>
<path fill="none" stroke="black" d="M386.908,-453.039C411,-463.809 443.59,-478.647 471.957,-492.5 502.361,-507.348 536.244,-525.004 561.896,-538.603"/>
<polygon fill="black" stroke="black" points="560.48,-541.814 570.953,-543.417 563.766,-535.633 560.48,-541.814"/>
</g>
<!-- tubuleHet/lagsplotnew.py&#45;&gt;wrappers.py -->
<g id="edge17" class="edge"><title>tubuleHet/lagsplotnew.py&#45;&gt;wrappers.py</title>
<path fill="none" stroke="black" d="M421.943,-437.5C464.232,-437.5 516.976,-437.5 554.552,-437.5"/>
<polygon fill="black" stroke="black" points="554.727,-441 564.727,-437.5 554.727,-434 554.727,-441"/>
</g>
<!-- tubuleHet/lagsplotrfp.py -->
<g id="node19" class="node"><title>tubuleHet/lagsplotrfp.py</title>
<ellipse fill="lightgrey" stroke="black" cx="96.692" cy="-847.5" rx="68.0705" ry="18"/>
<text text-anchor="middle" x="96.692" y="-845" font-family="Times New Roman,serif" font-size="10.00">tubuleHet/lagsplotrfp.py</text>
</g>
<!-- tubuleHet/visualize_real_random.py -->
<g id="node20" class="node"><title>tubuleHet/visualize_real_random.py</title>
<ellipse fill="lightgrey" stroke="black" cx="350.692" cy="-355.5" rx="94.55" ry="18"/>
<text text-anchor="middle" x="350.692" y="-353" font-family="Times New Roman,serif" font-size="10.00">tubuleHet/visualize_real_random.py</text>
</g>
<!-- tubuleHet/visualize_real_random.py&#45;&gt;wrappers.py -->
<g id="edge20" class="edge"><title>tubuleHet/visualize_real_random.py&#45;&gt;wrappers.py</title>
<path fill="none" stroke="black" d="M399.198,-371.02C446.105,-386.344 517.094,-409.536 561.628,-424.085"/>
<polygon fill="black" stroke="black" points="560.664,-427.452 571.256,-427.23 562.838,-420.798 560.664,-427.452"/>
</g>
<!-- tubuleHet/visualize_real_random.py&#45;&gt;pipeline/make_networkx.py -->
<g id="edge19" class="edge"><title>tubuleHet/visualize_real_random.py&#45;&gt;pipeline/make_networkx.py</title>
<path fill="none" stroke="black" d="M399.198,-339.98C441.877,-326.037 504.492,-305.581 548.977,-291.048"/>
<polygon fill="black" stroke="black" points="550.324,-294.29 558.743,-287.858 548.15,-287.636 550.324,-294.29"/>
</g>
<!-- mombud/vtk_viz/vtkvizfuncs.py -->
<g id="node21" class="node"><title>mombud/vtk_viz/vtkvizfuncs.py</title>
<ellipse fill="none" stroke="black" cx="603.692" cy="-355.5" rx="85.8896" ry="18"/>
<text text-anchor="middle" x="603.692" y="-353" font-family="Times New Roman,serif" font-size="10.00">mombud/vtk_viz/vtkvizfuncs.py</text>
</g>
<!-- tubuleHet/visualize_real_random.py&#45;&gt;mombud/vtk_viz/vtkvizfuncs.py -->
<g id="edge18" class="edge"><title>tubuleHet/visualize_real_random.py&#45;&gt;mombud/vtk_viz/vtkvizfuncs.py</title>
<path fill="none" stroke="black" d="M445.512,-355.5C465.762,-355.5 487.19,-355.5 507.492,-355.5"/>
<polygon fill="black" stroke="black" points="507.675,-359 517.675,-355.5 507.675,-352 507.675,-359"/>
</g>
</g>
</svg>
