<?xml version="1.0" encoding="UTF-8" standalone="no"?>
<!DOCTYPE svg PUBLIC "-//W3C//DTD SVG 1.1//EN"
 "http://www.w3.org/Graphics/SVG/1.1/DTD/svg11.dtd">
<!-- Generated by graphviz version 2.38.0 (20140413.2041)
 -->
<!-- Title: dependencies Pages: 1 -->
<svg width="576pt" height="718pt"
 viewBox="0.00 0.00 576.00 717.67" xmlns="http://www.w3.org/2000/svg" xmlns:xlink="http://www.w3.org/1999/xlink">
<g id="graph0" class="graph" transform="scale(0.812765 0.812765) rotate(0) translate(4 879)">
<title>dependencies</title>
<polygon fill="white" stroke="none" points="-4,4 -4,-879 704.692,-879 704.692,4 -4,4"/>
<!-- tubuleHet -->
<g id="node1" class="node"><title>tubuleHet</title>
<ellipse fill="lightgrey" stroke="black" cx="96.692" cy="-29.0492" rx="32.9303" ry="18"/>
<text text-anchor="middle" x="96.692" y="-26.5492" font-family="Times New Roman,serif" font-size="10.00">tubuleHet</text>
</g>
<!-- tubuleHet/AutoCorCDist_DY_Pop_AllCells.py -->
<g id="node2" class="node"><title>tubuleHet/AutoCorCDist_DY_Pop_AllCells.py</title>
<ellipse fill="lightgrey" stroke="black" cx="350.692" cy="-545.049" rx="121.03" ry="18"/>
<text text-anchor="middle" x="350.692" y="-542.549" font-family="Times New Roman,serif" font-size="10.00">tubuleHet/AutoCorCDist_DY_Pop_AllCells.py</text>
</g>
<!-- tubuleHet/autoCor/AutoPopFunc.py -->
<g id="node3" class="node"><title>tubuleHet/autoCor/AutoPopFunc.py</title>
<ellipse fill="lightgrey" stroke="black" cx="603.692" cy="-631.049" rx="96.5815" ry="18"/>
<text text-anchor="middle" x="603.692" y="-628.549" font-family="Times New Roman,serif" font-size="10.00">tubuleHet/autoCor/AutoPopFunc.py</text>
</g>
<!-- tubuleHet/AutoCorCDist_DY_Pop_AllCells.py&#45;&gt;tubuleHet/autoCor/AutoPopFunc.py -->
<g id="edge1" class="edge"><title>tubuleHet/AutoCorCDist_DY_Pop_AllCells.py&#45;&gt;tubuleHet/autoCor/AutoPopFunc.py</title>
<path fill="none" stroke="black" d="M399.79,-561.529C441.742,-575.903 502.624,-596.763 546.745,-611.88"/>
<polygon fill="black" stroke="black" points="545.857,-615.276 556.452,-615.206 548.126,-608.654 545.857,-615.276"/>
</g>
<!-- wrappers.py -->
<g id="node4" class="node"><title>wrappers.py</title>
<ellipse fill="none" stroke="black" cx="603.692" cy="-459.049" rx="38.7041" ry="18"/>
<text text-anchor="middle" x="603.692" y="-456.549" font-family="Times New Roman,serif" font-size="10.00">wrappers.py</text>
</g>
<!-- tubuleHet/AutoCorCDist_DY_Pop_AllCells.py&#45;&gt;wrappers.py -->
<g id="edge2" class="edge"><title>tubuleHet/AutoCorCDist_DY_Pop_AllCells.py&#45;&gt;wrappers.py</title>
<path fill="none" stroke="black" d="M399.79,-528.569C446.903,-512.427 517.891,-488.104 562.201,-472.923"/>
<polygon fill="black" stroke="black" points="563.449,-476.195 571.775,-469.642 561.18,-469.573 563.449,-476.195"/>
</g>
<!-- tubuleHet/AutoCorRFP_DY_Pop_AllCells.py -->
<g id="node5" class="node"><title>tubuleHet/AutoCorRFP_DY_Pop_AllCells.py</title>
<ellipse fill="lightgrey" stroke="black" cx="350.692" cy="-717.049" rx="117.966" ry="18"/>
<text text-anchor="middle" x="350.692" y="-714.549" font-family="Times New Roman,serif" font-size="10.00">tubuleHet/AutoCorRFP_DY_Pop_AllCells.py</text>
</g>
<!-- tubuleHet/AutoCorRFP_DY_Pop_AllCells.py&#45;&gt;tubuleHet/autoCor/AutoPopFunc.py -->
<g id="edge3" class="edge"><title>tubuleHet/AutoCorRFP_DY_Pop_AllCells.py&#45;&gt;tubuleHet/autoCor/AutoPopFunc.py</title>
<path fill="none" stroke="black" d="M399.79,-700.569C441.742,-686.195 502.624,-665.335 546.745,-650.218"/>
<polygon fill="black" stroke="black" points="548.126,-653.445 556.452,-646.892 545.857,-646.823 548.126,-653.445"/>
</g>
<!-- tubuleHet/Dist_DY_FourCell.py -->
<g id="node6" class="node"><title>tubuleHet/Dist_DY_FourCell.py</title>
<ellipse fill="lightgrey" stroke="black" cx="350.692" cy="-287.049" rx="85.8896" ry="18"/>
<text text-anchor="middle" x="350.692" y="-284.549" font-family="Times New Roman,serif" font-size="10.00">tubuleHet/Dist_DY_FourCell.py</text>
</g>
<!-- tubuleHet/autoCor/fitDistr.py -->
<g id="node7" class="node"><title>tubuleHet/autoCor/fitDistr.py</title>
<ellipse fill="lightgrey" stroke="black" cx="603.692" cy="-244.049" rx="79.439" ry="18"/>
<text text-anchor="middle" x="603.692" y="-241.549" font-family="Times New Roman,serif" font-size="10.00">tubuleHet/autoCor/fitDistr.py</text>
</g>
<!-- tubuleHet/Dist_DY_FourCell.py&#45;&gt;tubuleHet/autoCor/fitDistr.py -->
<g id="edge4" class="edge"><title>tubuleHet/Dist_DY_FourCell.py&#45;&gt;tubuleHet/autoCor/fitDistr.py</title>
<path fill="none" stroke="black" d="M417.639,-275.751C452.011,-269.863 494.141,-262.646 529.515,-256.585"/>
<polygon fill="black" stroke="black" points="530.514,-259.965 539.779,-254.827 529.332,-253.066 530.514,-259.965"/>
</g>
<!-- tubuleHet/Dist_DY_OneCell.py -->
<g id="node8" class="node"><title>tubuleHet/Dist_DY_OneCell.py</title>
<ellipse fill="lightgrey" stroke="black" cx="350.692" cy="-201.049" rx="84.358" ry="18"/>
<text text-anchor="middle" x="350.692" y="-198.549" font-family="Times New Roman,serif" font-size="10.00">tubuleHet/Dist_DY_OneCell.py</text>
</g>
<!-- tubuleHet/Dist_DY_OneCell.py&#45;&gt;tubuleHet/autoCor/fitDistr.py -->
<g id="edge5" class="edge"><title>tubuleHet/Dist_DY_OneCell.py&#45;&gt;tubuleHet/autoCor/fitDistr.py</title>
<path fill="none" stroke="black" d="M416.984,-212.235C451.637,-218.171 494.317,-225.483 530.019,-231.599"/>
<polygon fill="black" stroke="black" points="529.444,-235.052 539.892,-233.291 530.626,-228.152 529.444,-235.052"/>
</g>
<!-- tubuleHet/Dist_DY_OneEdgeCell.py -->
<g id="node9" class="node"><title>tubuleHet/Dist_DY_OneEdgeCell.py</title>
<ellipse fill="lightgrey" stroke="black" cx="96.692" cy="-298.049" rx="96.5815" ry="18"/>
<text text-anchor="middle" x="96.692" y="-295.549" font-family="Times New Roman,serif" font-size="10.00">tubuleHet/Dist_DY_OneEdgeCell.py</text>
</g>
<!-- tubuleHet/MakeInpRFP.py -->
<g id="node10" class="node"><title>tubuleHet/MakeInpRFP.py</title>
<ellipse fill="lightgrey" stroke="black" cx="96.692" cy="-115.049" rx="73.6658" ry="18"/>
<text text-anchor="middle" x="96.692" y="-112.549" font-family="Times New Roman,serif" font-size="10.00">tubuleHet/MakeInpRFP.py</text>
</g>
<!-- tubuleHet/autoCor/fitDistRFP.py -->
<g id="node11" class="node"><title>tubuleHet/autoCor/fitDistRFP.py</title>
<ellipse fill="lightgrey" stroke="black" cx="350.692" cy="-115.049" rx="87.9221" ry="18"/>
<text text-anchor="middle" x="350.692" y="-112.549" font-family="Times New Roman,serif" font-size="10.00">tubuleHet/autoCor/fitDistRFP.py</text>
</g>
<!-- tubuleHet/MakeInpRFP.py&#45;&gt;tubuleHet/autoCor/fitDistRFP.py -->
<g id="edge6" class="edge"><title>tubuleHet/MakeInpRFP.py&#45;&gt;tubuleHet/autoCor/fitDistRFP.py</title>
<path fill="none" stroke="black" d="M170.581,-115.049C196.102,-115.049 225.182,-115.049 252.378,-115.049"/>
<polygon fill="black" stroke="black" points="252.698,-118.549 262.698,-115.049 252.698,-111.549 252.698,-118.549"/>
</g>
<!-- tubuleHet/autoCor/fitDistRFP.py&#45;&gt;tubuleHet/autoCor/fitDistr.py -->
<g id="edge11" class="edge"><title>tubuleHet/autoCor/fitDistRFP.py&#45;&gt;tubuleHet/autoCor/fitDistr.py</title>
<path fill="none" stroke="black" d="M386.328,-131.638C410.445,-143.288 443.295,-159.351 471.957,-174.049 502.868,-189.901 537.513,-208.489 563.369,-222.525"/>
<polygon fill="black" stroke="black" points="562.017,-225.774 572.474,-227.477 565.361,-219.624 562.017,-225.774"/>
</g>
<!-- tubuleHet/MakeInputForLags.py -->
<g id="node12" class="node"><title>tubuleHet/MakeInputForLags.py</title>
<ellipse fill="lightgrey" stroke="black" cx="350.692" cy="-373.049" rx="87.9221" ry="18"/>
<text text-anchor="middle" x="350.692" y="-370.549" font-family="Times New Roman,serif" font-size="10.00">tubuleHet/MakeInputForLags.py</text>
</g>
<!-- tubuleHet/MakeInputForLags.py&#45;&gt;wrappers.py -->
<g id="edge9" class="edge"><title>tubuleHet/MakeInputForLags.py&#45;&gt;wrappers.py</title>
<path fill="none" stroke="black" d="M396.566,-388.424C443.727,-404.583 517.232,-429.768 562.538,-445.291"/>
<polygon fill="black" stroke="black" points="561.44,-448.615 572.034,-448.545 563.709,-441.992 561.44,-448.615"/>
</g>
<!-- tubuleHet/MakeInputForLags.py&#45;&gt;tubuleHet/autoCor/fitDistr.py -->
<g id="edge8" class="edge"><title>tubuleHet/MakeInputForLags.py&#45;&gt;tubuleHet/autoCor/fitDistr.py</title>
<path fill="none" stroke="black" d="M386.328,-356.46C410.445,-344.81 443.295,-328.747 471.957,-314.049 502.868,-298.198 537.513,-279.61 563.369,-265.573"/>
<polygon fill="black" stroke="black" points="565.361,-268.474 572.474,-260.622 562.017,-262.325 565.361,-268.474"/>
</g>
<!-- pipeline/make_networkx.py -->
<g id="node13" class="node"><title>pipeline/make_networkx.py</title>
<ellipse fill="none" stroke="black" cx="603.692" cy="-373.049" rx="73.6658" ry="18"/>
<text text-anchor="middle" x="603.692" y="-370.549" font-family="Times New Roman,serif" font-size="10.00">pipeline/make_networkx.py</text>
</g>
<!-- tubuleHet/MakeInputForLags.py&#45;&gt;pipeline/make_networkx.py -->
<g id="edge7" class="edge"><title>tubuleHet/MakeInputForLags.py&#45;&gt;pipeline/make_networkx.py</title>
<path fill="none" stroke="black" d="M438.423,-373.049C464.693,-373.049 493.476,-373.049 519.508,-373.049"/>
<polygon fill="black" stroke="black" points="519.717,-376.549 529.717,-373.049 519.717,-369.549 519.717,-376.549"/>
</g>
<!-- tubuleHet/PowerSD.py -->
<g id="node14" class="node"><title>tubuleHet/PowerSD.py</title>
<ellipse fill="lightgrey" stroke="black" cx="350.692" cy="-631.049" rx="64.3289" ry="18"/>
<text text-anchor="middle" x="350.692" y="-628.549" font-family="Times New Roman,serif" font-size="10.00">tubuleHet/PowerSD.py</text>
</g>
<!-- tubuleHet/PowerSD.py&#45;&gt;tubuleHet/autoCor/AutoPopFunc.py -->
<g id="edge10" class="edge"><title>tubuleHet/PowerSD.py&#45;&gt;tubuleHet/autoCor/AutoPopFunc.py</title>
<path fill="none" stroke="black" d="M415.03,-631.049C439.864,-631.049 469.042,-631.049 496.893,-631.049"/>
<polygon fill="black" stroke="black" points="497.084,-634.549 507.084,-631.049 497.084,-627.549 497.084,-634.549"/>
</g>
<!-- tubuleHet/autoCor -->
<g id="node15" class="node"><title>tubuleHet/autoCor</title>
<ellipse fill="lightgrey" stroke="black" cx="96.692" cy="-577.049" rx="54.3144" ry="18"/>
<text text-anchor="middle" x="96.692" y="-574.549" font-family="Times New Roman,serif" font-size="10.00">tubuleHet/autoCor</text>
</g>
<!-- tubuleHet/autoCor/lagsfun.py -->
<g id="node16" class="node"><title>tubuleHet/autoCor/lagsfun.py</title>
<ellipse fill="lightgrey" stroke="black" cx="350.692" cy="-803.049" rx="80.7939" ry="18"/>
<text text-anchor="middle" x="350.692" y="-800.549" font-family="Times New Roman,serif" font-size="10.00">tubuleHet/autoCor/lagsfun.py</text>
</g>
<!-- tubuleHet/lagsplotnew.py -->
<g id="node17" class="node"><title>tubuleHet/lagsplotnew.py</title>
<ellipse fill="lightgrey" stroke="black" cx="96.692" cy="-846.049" rx="71.4572" ry="18"/>
<text text-anchor="middle" x="96.692" y="-843.549" font-family="Times New Roman,serif" font-size="10.00">tubuleHet/lagsplotnew.py</text>
</g>
<!-- tubuleHet/lagsplotnew.py&#45;&gt;tubuleHet/autoCor/lagsfun.py -->
<g id="edge12" class="edge"><title>tubuleHet/lagsplotnew.py&#45;&gt;tubuleHet/autoCor/lagsfun.py</title>
<path fill="none" stroke="black" d="M156.139,-836.076C191.776,-829.995 237.648,-822.168 275.79,-815.66"/>
<polygon fill="black" stroke="black" points="276.548,-819.081 285.817,-813.949 275.37,-812.181 276.548,-819.081"/>
</g>
<!-- tubuleHet/lagsplotrfp.py -->
<g id="node18" class="node"><title>tubuleHet/lagsplotrfp.py</title>
<ellipse fill="lightgrey" stroke="black" cx="96.692" cy="-760.049" rx="68.0705" ry="18"/>
<text text-anchor="middle" x="96.692" y="-757.549" font-family="Times New Roman,serif" font-size="10.00">tubuleHet/lagsplotrfp.py</text>
</g>
<!-- tubuleHet/lagsplotrfp.py&#45;&gt;tubuleHet/autoCor/lagsfun.py -->
<g id="edge13" class="edge"><title>tubuleHet/lagsplotrfp.py&#45;&gt;tubuleHet/autoCor/lagsfun.py</title>
<path fill="none" stroke="black" d="M154.56,-769.753C190.406,-775.869 237.065,-783.831 275.768,-790.435"/>
<polygon fill="black" stroke="black" points="275.493,-793.939 285.94,-792.171 276.671,-787.039 275.493,-793.939"/>
</g>
<!-- tubuleHet/visualize_real_random.py -->
<g id="node19" class="node"><title>tubuleHet/visualize_real_random.py</title>
<ellipse fill="lightgrey" stroke="black" cx="350.692" cy="-459.049" rx="94.55" ry="18"/>
<text text-anchor="middle" x="350.692" y="-456.549" font-family="Times New Roman,serif" font-size="10.00">tubuleHet/visualize_real_random.py</text>
</g>
<!-- tubuleHet/visualize_real_random.py&#45;&gt;wrappers.py -->
<g id="edge16" class="edge"><title>tubuleHet/visualize_real_random.py&#45;&gt;wrappers.py</title>
<path fill="none" stroke="black" d="M445.512,-459.049C482.667,-459.049 523.787,-459.049 554.646,-459.049"/>
<polygon fill="black" stroke="black" points="554.698,-462.549 564.698,-459.049 554.698,-455.549 554.698,-462.549"/>
</g>
<!-- tubuleHet/visualize_real_random.py&#45;&gt;pipeline/make_networkx.py -->
<g id="edge15" class="edge"><title>tubuleHet/visualize_real_random.py&#45;&gt;pipeline/make_networkx.py</title>
<path fill="none" stroke="black" d="M397.437,-443.375C440.646,-428.571 505.392,-406.387 550.575,-390.906"/>
<polygon fill="black" stroke="black" points="551.863,-394.164 560.189,-387.612 549.594,-387.542 551.863,-394.164"/>
</g>
<!-- mombud/vtk_viz/vtkvizfuncs.py -->
<g id="node20" class="node"><title>mombud/vtk_viz/vtkvizfuncs.py</title>
<ellipse fill="none" stroke="black" cx="603.692" cy="-545.049" rx="85.8896" ry="18"/>
<text text-anchor="middle" x="603.692" y="-542.549" font-family="Times New Roman,serif" font-size="10.00">mombud/vtk_viz/vtkvizfuncs.py</text>
</g>
<!-- tubuleHet/visualize_real_random.py&#45;&gt;mombud/vtk_viz/vtkvizfuncs.py -->
<g id="edge14" class="edge"><title>tubuleHet/visualize_real_random.py&#45;&gt;mombud/vtk_viz/vtkvizfuncs.py</title>
<path fill="none" stroke="black" d="M397.437,-474.723C439.988,-489.302 503.423,-511.037 548.495,-526.48"/>
<polygon fill="black" stroke="black" points="547.51,-529.842 558.105,-529.772 549.779,-523.22 547.51,-529.842"/>
</g>
</g>
</svg>
