<?xml version="1.0" encoding="UTF-8" standalone="no"?>
<!DOCTYPE svg PUBLIC "-//W3C//DTD SVG 1.1//EN"
 "http://www.w3.org/Graphics/SVG/1.1/DTD/svg11.dtd">
<!-- Generated by graphviz version 2.38.0 (20140413.2041)
 -->
<!-- Title: dependencies Pages: 1 -->
<svg width="576pt" height="716pt"
 viewBox="0.00 0.00 576.00 716.50" xmlns="http://www.w3.org/2000/svg" xmlns:xlink="http://www.w3.org/1999/xlink">
<g id="graph0" class="graph" transform="scale(0.984203 0.984203) rotate(0) translate(4 724)">
<title>dependencies</title>
<polygon fill="white" stroke="none" points="-4,4 -4,-724 581.245,-724 581.245,4 -4,4"/>
<!-- tubuleHet -->
<g id="node1" class="node"><title>tubuleHet</title>
<ellipse fill="lightgrey" stroke="black" cx="136.245" cy="-31.2174" rx="32.9303" ry="18"/>
<text text-anchor="middle" x="136.245" y="-28.7174" font-family="Times New Roman,serif" font-size="10.00">tubuleHet</text>
</g>
<!-- tubuleHet/autoCor -->
<g id="node2" class="node"><title>tubuleHet/autoCor</title>
<ellipse fill="lightgrey" stroke="black" cx="136.245" cy="-125.217" rx="54.3144" ry="18"/>
<text text-anchor="middle" x="136.245" y="-122.717" font-family="Times New Roman,serif" font-size="10.00">tubuleHet/autoCor</text>
</g>
<!-- tubuleHet/autoCor/AutoPopFunc.py -->
<g id="node3" class="node"><title>tubuleHet/autoCor/AutoPopFunc.py</title>
<ellipse fill="lightgrey" stroke="black" cx="449.245" cy="-407.217" rx="96.5815" ry="18"/>
<text text-anchor="middle" x="449.245" y="-404.717" font-family="Times New Roman,serif" font-size="10.00">tubuleHet/autoCor/AutoPopFunc.py</text>
</g>
<!-- tubuleHet/autoCor/fitDistr.py -->
<g id="node4" class="node"><title>tubuleHet/autoCor/fitDistr.py</title>
<ellipse fill="lightgrey" stroke="black" cx="136.245" cy="-595.217" rx="79.439" ry="18"/>
<text text-anchor="middle" x="136.245" y="-592.717" font-family="Times New Roman,serif" font-size="10.00">tubuleHet/autoCor/fitDistr.py</text>
</g>
<!-- tubuleHet/autocordist_rand_carbon.py -->
<g id="node5" class="node"><title>tubuleHet/autocordist_rand_carbon.py</title>
<ellipse fill="lightgrey" stroke="black" cx="136.245" cy="-501.217" rx="102.355" ry="18"/>
<text text-anchor="middle" x="136.245" y="-498.717" font-family="Times New Roman,serif" font-size="10.00">tubuleHet/autocordist_rand_carbon.py</text>
</g>
<!-- tubuleHet/autocordist_rand_carbon.py&#45;&gt;tubuleHet/autoCor/AutoPopFunc.py -->
<g id="edge1" class="edge"><title>tubuleHet/autocordist_rand_carbon.py&#45;&gt;tubuleHet/autoCor/AutoPopFunc.py</title>
<path fill="none" stroke="black" d="M188.601,-485.695C243.317,-469.157 329.873,-442.995 387.829,-425.478"/>
<polygon fill="black" stroke="black" points="389.029,-428.772 397.588,-422.529 387.003,-422.072 389.029,-428.772"/>
</g>
<!-- wrappers.py -->
<g id="node6" class="node"><title>wrappers.py</title>
<ellipse fill="none" stroke="black" cx="449.245" cy="-313.217" rx="38.7041" ry="18"/>
<text text-anchor="middle" x="449.245" y="-310.717" font-family="Times New Roman,serif" font-size="10.00">wrappers.py</text>
</g>
<!-- tubuleHet/autocordist_rand_carbon.py&#45;&gt;wrappers.py -->
<g id="edge2" class="edge"><title>tubuleHet/autocordist_rand_carbon.py&#45;&gt;wrappers.py</title>
<path fill="none" stroke="black" d="M165.946,-483.868C224.016,-448.764 355.086,-369.533 415.999,-332.71"/>
<polygon fill="black" stroke="black" points="418.059,-335.555 424.806,-327.386 414.438,-329.564 418.059,-335.555"/>
</g>
<!-- tubuleHet/lagsplotrfp.py -->
<g id="node7" class="node"><title>tubuleHet/lagsplotrfp.py</title>
<ellipse fill="lightgrey" stroke="black" cx="136.245" cy="-688.217" rx="68.0705" ry="18"/>
<text text-anchor="middle" x="136.245" y="-685.717" font-family="Times New Roman,serif" font-size="10.00">tubuleHet/lagsplotrfp.py</text>
</g>
<!-- tubuleHet/psd_rand_carbon.py -->
<g id="node8" class="node"><title>tubuleHet/psd_rand_carbon.py</title>
<ellipse fill="lightgrey" stroke="black" cx="136.245" cy="-407.217" rx="84.358" ry="18"/>
<text text-anchor="middle" x="136.245" y="-404.717" font-family="Times New Roman,serif" font-size="10.00">tubuleHet/psd_rand_carbon.py</text>
</g>
<!-- tubuleHet/psd_rand_carbon.py&#45;&gt;tubuleHet/autoCor/AutoPopFunc.py -->
<g id="edge3" class="edge"><title>tubuleHet/psd_rand_carbon.py&#45;&gt;tubuleHet/autoCor/AutoPopFunc.py</title>
<path fill="none" stroke="black" d="M220.588,-407.217C258.074,-407.217 302.749,-407.217 342.555,-407.217"/>
<polygon fill="black" stroke="black" points="342.563,-410.717 352.563,-407.217 342.563,-403.717 342.563,-410.717"/>
</g>
<!-- tubuleHet/psd_rand_carbon.py&#45;&gt;wrappers.py -->
<g id="edge4" class="edge"><title>tubuleHet/psd_rand_carbon.py&#45;&gt;wrappers.py</title>
<path fill="none" stroke="black" d="M185.839,-392.53C246.436,-374.215 349.012,-343.211 406.32,-325.889"/>
<polygon fill="black" stroke="black" points="407.575,-329.167 416.134,-322.923 405.549,-322.466 407.575,-329.167"/>
</g>
<!-- tubuleHet/variogram_rand_carbon.py -->
<g id="node9" class="node"><title>tubuleHet/variogram_rand_carbon.py</title>
<ellipse fill="lightgrey" stroke="black" cx="136.245" cy="-313.217" rx="98.7909" ry="18"/>
<text text-anchor="middle" x="136.245" y="-310.717" font-family="Times New Roman,serif" font-size="10.00">tubuleHet/variogram_rand_carbon.py</text>
</g>
<!-- tubuleHet/variogram_rand_carbon.py&#45;&gt;tubuleHet/autoCor/AutoPopFunc.py -->
<g id="edge5" class="edge"><title>tubuleHet/variogram_rand_carbon.py&#45;&gt;tubuleHet/autoCor/AutoPopFunc.py</title>
<path fill="none" stroke="black" d="M188.252,-328.634C242.987,-345.178 329.869,-371.438 387.948,-388.992"/>
<polygon fill="black" stroke="black" points="387.142,-392.405 397.727,-391.948 389.167,-385.704 387.142,-392.405"/>
</g>
<!-- tubuleHet/variogram_rand_carbon.py&#45;&gt;wrappers.py -->
<g id="edge6" class="edge"><title>tubuleHet/variogram_rand_carbon.py&#45;&gt;wrappers.py</title>
<path fill="none" stroke="black" d="M235.221,-313.217C290.11,-313.217 356.131,-313.217 399.979,-313.217"/>
<polygon fill="black" stroke="black" points="400.08,-316.717 410.08,-313.217 400.08,-309.717 400.08,-316.717"/>
</g>
<!-- tubuleHet/visualize_real_random.py -->
<g id="node10" class="node"><title>tubuleHet/visualize_real_random.py</title>
<ellipse fill="lightgrey" stroke="black" cx="136.245" cy="-219.217" rx="94.55" ry="18"/>
<text text-anchor="middle" x="136.245" y="-216.717" font-family="Times New Roman,serif" font-size="10.00">tubuleHet/visualize_real_random.py</text>
</g>
<!-- tubuleHet/visualize_real_random.py&#45;&gt;wrappers.py -->
<g id="edge9" class="edge"><title>tubuleHet/visualize_real_random.py&#45;&gt;wrappers.py</title>
<path fill="none" stroke="black" d="M187.558,-234.425C248.375,-252.806 349.601,-283.402 406.362,-300.558"/>
<polygon fill="black" stroke="black" points="405.502,-303.955 416.087,-303.498 407.527,-297.254 405.502,-303.955"/>
</g>
<!-- mombud/vtk_viz/vtkvizfuncs.py -->
<g id="node11" class="node"><title>mombud/vtk_viz/vtkvizfuncs.py</title>
<ellipse fill="none" stroke="black" cx="449.245" cy="-219.217" rx="85.8896" ry="18"/>
<text text-anchor="middle" x="449.245" y="-216.717" font-family="Times New Roman,serif" font-size="10.00">mombud/vtk_viz/vtkvizfuncs.py</text>
</g>
<!-- tubuleHet/visualize_real_random.py&#45;&gt;mombud/vtk_viz/vtkvizfuncs.py -->
<g id="edge7" class="edge"><title>tubuleHet/visualize_real_random.py&#45;&gt;mombud/vtk_viz/vtkvizfuncs.py</title>
<path fill="none" stroke="black" d="M231.4,-219.217C269.884,-219.217 314.34,-219.217 352.942,-219.217"/>
<polygon fill="black" stroke="black" points="353.142,-222.717 363.142,-219.217 353.142,-215.717 353.142,-222.717"/>
</g>
<!-- pipeline/make_networkx.py -->
<g id="node12" class="node"><title>pipeline/make_networkx.py</title>
<ellipse fill="none" stroke="black" cx="449.245" cy="-125.217" rx="73.6658" ry="18"/>
<text text-anchor="middle" x="449.245" y="-122.717" font-family="Times New Roman,serif" font-size="10.00">pipeline/make_networkx.py</text>
</g>
<!-- tubuleHet/visualize_real_random.py&#45;&gt;pipeline/make_networkx.py -->
<g id="edge8" class="edge"><title>tubuleHet/visualize_real_random.py&#45;&gt;pipeline/make_networkx.py</title>
<path fill="none" stroke="black" d="M187.558,-204.01C243.625,-187.064 334.037,-159.737 392.291,-142.13"/>
<polygon fill="black" stroke="black" points="393.506,-145.419 402.065,-139.175 391.48,-138.718 393.506,-145.419"/>
</g>
</g>
</svg>
