<?xml version="1.0" encoding="UTF-8" standalone="no"?>
<!DOCTYPE svg PUBLIC "-//W3C//DTD SVG 1.1//EN"
 "http://www.w3.org/Graphics/SVG/1.1/DTD/svg11.dtd">
<!-- Generated by graphviz version 2.38.0 (20140413.2041)
 -->
<!-- Title: dependencies Pages: 1 -->
<svg width="576pt" height="718pt"
 viewBox="0.00 0.00 576.00 717.73" xmlns="http://www.w3.org/2000/svg" xmlns:xlink="http://www.w3.org/1999/xlink">
<g id="graph0" class="graph" transform="scale(0.985891 0.985891) rotate(0) translate(4 724)">
<title>dependencies</title>
<polygon fill="white" stroke="none" points="-4,4 -4,-724 580.243,-724 580.243,4 -4,4"/>
<!-- mombud -->
<g id="node1" class="node"><title>mombud</title>
<ellipse fill="lightgrey" stroke="black" cx="125.243" cy="-27.9231" rx="30.0436" ry="18"/>
<text text-anchor="middle" x="125.243" y="-25.4231" font-family="Times New Roman,serif" font-size="10.00">mombud</text>
</g>
<!-- mombud/bootcompare.py -->
<g id="node2" class="node"><title>mombud/bootcompare.py</title>
<ellipse fill="lightgrey" stroke="black" cx="125.243" cy="-525.923" rx="70.1018" ry="18"/>
<text text-anchor="middle" x="125.243" y="-523.423" font-family="Times New Roman,serif" font-size="10.00">mombud/bootcompare.py</text>
</g>
<!-- mombud/vtk_viz/vtk_mbfuncs.py -->
<g id="node3" class="node"><title>mombud/vtk_viz/vtk_mbfuncs.py</title>
<ellipse fill="lightgrey" stroke="black" cx="380.243" cy="-567.923" rx="89.4535" ry="18"/>
<text text-anchor="middle" x="380.243" y="-565.423" font-family="Times New Roman,serif" font-size="10.00">mombud/vtk_viz/vtk_mbfuncs.py</text>
</g>
<!-- mombud/bootcompare.py&#45;&gt;mombud/vtk_viz/vtk_mbfuncs.py -->
<g id="edge1" class="edge"><title>mombud/bootcompare.py&#45;&gt;mombud/vtk_viz/vtk_mbfuncs.py</title>
<path fill="none" stroke="black" d="M184.604,-535.611C219.032,-541.327 263.058,-548.635 300.527,-554.856"/>
<polygon fill="black" stroke="black" points="299.965,-558.31 310.403,-556.495 301.111,-551.405 299.965,-558.31"/>
</g>
<!-- wrappers.py -->
<g id="node4" class="node"><title>wrappers.py</title>
<ellipse fill="none" stroke="black" cx="380.243" cy="-359.923" rx="38.7041" ry="18"/>
<text text-anchor="middle" x="380.243" y="-357.423" font-family="Times New Roman,serif" font-size="10.00">wrappers.py</text>
</g>
<!-- mombud/bootcompare.py&#45;&gt;wrappers.py -->
<g id="edge2" class="edge"><title>mombud/bootcompare.py&#45;&gt;wrappers.py</title>
<path fill="none" stroke="black" d="M164.651,-511.016C188.932,-500.88 220.521,-486.357 246.508,-469.923 287.542,-443.974 329.87,-406.742 355.375,-382.946"/>
<polygon fill="black" stroke="black" points="357.85,-385.424 362.731,-376.02 353.051,-380.327 357.85,-385.424"/>
</g>
<!-- mombud/vtk_make_many_figs&#45;tester.py -->
<g id="node5" class="node"><title>mombud/vtk_make_many_figs&#45;tester.py</title>
<ellipse fill="lightgrey" stroke="black" cx="125.243" cy="-276.923" rx="104.564" ry="18"/>
<text text-anchor="middle" x="125.243" y="-274.423" font-family="Times New Roman,serif" font-size="10.00">mombud/vtk_make_many_figs&#45;tester.py</text>
</g>
<!-- mombud/vtk_make_many_figs&#45;tester.py&#45;&gt;wrappers.py -->
<g id="edge5" class="edge"><title>mombud/vtk_make_many_figs&#45;tester.py&#45;&gt;wrappers.py</title>
<path fill="none" stroke="black" d="M174.725,-292.828C222.213,-308.407 293.767,-331.881 338.43,-346.534"/>
<polygon fill="black" stroke="black" points="337.487,-349.908 348.08,-349.7 339.669,-343.257 337.487,-349.908"/>
</g>
<!-- mombud/vtk_viz/vtkvizfuncs.py -->
<g id="node6" class="node"><title>mombud/vtk_viz/vtkvizfuncs.py</title>
<ellipse fill="lightgrey" stroke="black" cx="380.243" cy="-276.923" rx="85.8896" ry="18"/>
<text text-anchor="middle" x="380.243" y="-274.423" font-family="Times New Roman,serif" font-size="10.00">mombud/vtk_viz/vtkvizfuncs.py</text>
</g>
<!-- mombud/vtk_make_many_figs&#45;tester.py&#45;&gt;mombud/vtk_viz/vtkvizfuncs.py -->
<g id="edge3" class="edge"><title>mombud/vtk_make_many_figs&#45;tester.py&#45;&gt;mombud/vtk_viz/vtkvizfuncs.py</title>
<path fill="none" stroke="black" d="M230.243,-276.923C248.016,-276.923 266.402,-276.923 283.935,-276.923"/>
<polygon fill="black" stroke="black" points="284.148,-280.423 294.148,-276.923 284.148,-273.423 284.148,-280.423"/>
</g>
<!-- pipeline/make_networkx.py -->
<g id="node7" class="node"><title>pipeline/make_networkx.py</title>
<ellipse fill="none" stroke="black" cx="380.243" cy="-193.923" rx="73.6658" ry="18"/>
<text text-anchor="middle" x="380.243" y="-191.423" font-family="Times New Roman,serif" font-size="10.00">pipeline/make_networkx.py</text>
</g>
<!-- mombud/vtk_make_many_figs&#45;tester.py&#45;&gt;pipeline/make_networkx.py -->
<g id="edge4" class="edge"><title>mombud/vtk_make_many_figs&#45;tester.py&#45;&gt;pipeline/make_networkx.py</title>
<path fill="none" stroke="black" d="M174.725,-261.018C218.035,-246.81 281.363,-226.034 326.052,-211.373"/>
<polygon fill="black" stroke="black" points="327.162,-214.692 335.573,-208.25 324.98,-208.041 327.162,-214.692"/>
</g>
<!-- config.py -->
<g id="node14" class="node"><title>config.py</title>
<ellipse fill="none" stroke="black" cx="543.243" cy="-276.923" rx="32.2534" ry="18"/>
<text text-anchor="middle" x="543.243" y="-274.423" font-family="Times New Roman,serif" font-size="10.00">config.py</text>
</g>
<!-- mombud/vtk_viz/vtkvizfuncs.py&#45;&gt;config.py -->
<g id="edge18" class="edge"><title>mombud/vtk_viz/vtkvizfuncs.py&#45;&gt;config.py</title>
<path fill="none" stroke="black" d="M466.458,-276.923C478.337,-276.923 490.08,-276.923 500.645,-276.923"/>
<polygon fill="black" stroke="black" points="500.78,-280.423 510.78,-276.923 500.78,-273.423 500.78,-280.423"/>
</g>
<!-- mombud/vtk_make_many_figs.py -->
<g id="node8" class="node"><title>mombud/vtk_make_many_figs.py</title>
<ellipse fill="lightgrey" stroke="black" cx="125.243" cy="-193.923" rx="89.4535" ry="18"/>
<text text-anchor="middle" x="125.243" y="-191.423" font-family="Times New Roman,serif" font-size="10.00">mombud/vtk_make_many_figs.py</text>
</g>
<!-- mombud/vtk_make_many_figs.py&#45;&gt;wrappers.py -->
<g id="edge8" class="edge"><title>mombud/vtk_make_many_figs.py&#45;&gt;wrappers.py</title>
<path fill="none" stroke="black" d="M171.486,-209.383C195.258,-218.837 224.037,-232.483 246.508,-249.923 271.022,-268.949 267.524,-283.363 290.766,-303.923 307.08,-318.354 327.503,-331.544 344.616,-341.492"/>
<polygon fill="black" stroke="black" points="343.312,-344.777 353.736,-346.674 346.77,-338.691 343.312,-344.777"/>
</g>
<!-- mombud/vtk_make_many_figs.py&#45;&gt;mombud/vtk_viz/vtkvizfuncs.py -->
<g id="edge6" class="edge"><title>mombud/vtk_make_many_figs.py&#45;&gt;mombud/vtk_viz/vtkvizfuncs.py</title>
<path fill="none" stroke="black" d="M172.942,-209.243C215.508,-223.208 278.449,-243.856 323.606,-258.67"/>
<polygon fill="black" stroke="black" points="322.651,-262.041 333.243,-261.832 324.833,-255.389 322.651,-262.041"/>
</g>
<!-- mombud/vtk_make_many_figs.py&#45;&gt;pipeline/make_networkx.py -->
<g id="edge7" class="edge"><title>mombud/vtk_make_many_figs.py&#45;&gt;pipeline/make_networkx.py</title>
<path fill="none" stroke="black" d="M214.73,-193.923C241.148,-193.923 270.003,-193.923 296.068,-193.923"/>
<polygon fill="black" stroke="black" points="296.288,-197.423 306.288,-193.923 296.288,-190.423 296.288,-197.423"/>
</g>
<!-- mombud/vtk_makefigs.py -->
<g id="node9" class="node"><title>mombud/vtk_makefigs.py</title>
<ellipse fill="lightgrey" stroke="black" cx="125.243" cy="-110.923" rx="70.7794" ry="18"/>
<text text-anchor="middle" x="125.243" y="-108.423" font-family="Times New Roman,serif" font-size="10.00">mombud/vtk_makefigs.py</text>
</g>
<!-- mombud/vtk_makefigs.py&#45;&gt;wrappers.py -->
<g id="edge11" class="edge"><title>mombud/vtk_makefigs.py&#45;&gt;wrappers.py</title>
<path fill="none" stroke="black" d="M175.607,-123.689C199.946,-132.275 227.977,-145.954 246.508,-166.923 288.88,-214.871 251.56,-253.354 290.766,-303.923 303.951,-320.929 323.858,-334.18 341.453,-343.514"/>
<polygon fill="black" stroke="black" points="339.892,-346.647 350.395,-348.037 343.051,-340.401 339.892,-346.647"/>
</g>
<!-- mombud/vtk_makefigs.py&#45;&gt;mombud/vtk_viz/vtkvizfuncs.py -->
<g id="edge9" class="edge"><title>mombud/vtk_makefigs.py&#45;&gt;mombud/vtk_viz/vtkvizfuncs.py</title>
<path fill="none" stroke="black" d="M168.624,-125.256C192.917,-134.739 223.127,-148.777 246.508,-166.923 271.022,-185.949 267.524,-200.363 290.766,-220.923 305.222,-233.71 322.904,-245.523 338.65,-254.969"/>
<polygon fill="black" stroke="black" points="337.261,-258.212 347.659,-260.248 340.8,-252.172 337.261,-258.212"/>
</g>
<!-- mombud/vtk_makefigs.py&#45;&gt;pipeline/make_networkx.py -->
<g id="edge10" class="edge"><title>mombud/vtk_makefigs.py&#45;&gt;pipeline/make_networkx.py</title>
<path fill="none" stroke="black" d="M169.448,-125.097C212.665,-139.275 279.232,-161.113 325.759,-176.377"/>
<polygon fill="black" stroke="black" points="324.775,-179.738 335.368,-179.529 326.957,-173.086 324.775,-179.738"/>
</g>
<!-- mombud/vtk_mom_bud_analyse_refactored.py -->
<g id="node10" class="node"><title>mombud/vtk_mom_bud_analyse_refactored.py</title>
<ellipse fill="lightgrey" stroke="black" cx="125.243" cy="-608.923" rx="121.03" ry="18"/>
<text text-anchor="middle" x="125.243" y="-606.423" font-family="Times New Roman,serif" font-size="10.00">mombud/vtk_mom_bud_analyse_refactored.py</text>
</g>
<!-- mombud/vtk_mom_bud_analyse_refactored.py&#45;&gt;mombud/vtk_viz/vtk_mbfuncs.py -->
<g id="edge12" class="edge"><title>mombud/vtk_mom_bud_analyse_refactored.py&#45;&gt;mombud/vtk_viz/vtk_mbfuncs.py</title>
<path fill="none" stroke="black" d="M208.036,-595.668C237.48,-590.896 270.634,-585.524 299.869,-580.786"/>
<polygon fill="black" stroke="black" points="300.723,-584.193 310.034,-579.139 299.603,-577.284 300.723,-584.193"/>
</g>
<!-- mombud/vtk_mom_bud_analyse_refactored.py&#45;&gt;wrappers.py -->
<g id="edge13" class="edge"><title>mombud/vtk_mom_bud_analyse_refactored.py&#45;&gt;wrappers.py</title>
<path fill="none" stroke="black" d="M176.505,-592.477C199.504,-583.292 226.109,-570.177 246.508,-552.923 303.135,-505.027 346.446,-427.42 366.674,-386.744"/>
<polygon fill="black" stroke="black" points="369.844,-388.229 371.089,-377.708 363.554,-385.156 369.844,-388.229"/>
</g>
<!-- mombud/vtk_pick_mombud_pos.py -->
<g id="node11" class="node"><title>mombud/vtk_pick_mombud_pos.py</title>
<ellipse fill="lightgrey" stroke="black" cx="125.243" cy="-359.923" rx="94.55" ry="18"/>
<text text-anchor="middle" x="125.243" y="-357.423" font-family="Times New Roman,serif" font-size="10.00">mombud/vtk_pick_mombud_pos.py</text>
</g>
<!-- mombud/vtk_pick_mombud_pos.py&#45;&gt;wrappers.py -->
<g id="edge15" class="edge"><title>mombud/vtk_pick_mombud_pos.py&#45;&gt;wrappers.py</title>
<path fill="none" stroke="black" d="M220.092,-359.923C257.869,-359.923 299.816,-359.923 331.158,-359.923"/>
<polygon fill="black" stroke="black" points="331.36,-363.423 341.36,-359.923 331.36,-356.423 331.36,-363.423"/>
</g>
<!-- mombud/vtk_pick_mombud_pos.py&#45;&gt;mombud/vtk_viz/vtkvizfuncs.py -->
<g id="edge14" class="edge"><title>mombud/vtk_pick_mombud_pos.py&#45;&gt;mombud/vtk_viz/vtkvizfuncs.py</title>
<path fill="none" stroke="black" d="M173.534,-344.409C216.039,-330.464 278.509,-309.97 323.445,-295.228"/>
<polygon fill="black" stroke="black" points="324.628,-298.524 333.039,-292.081 322.446,-291.873 324.628,-298.524"/>
</g>
<!-- mombud/vtk_rotate_mombudaxis.py -->
<g id="node12" class="node"><title>mombud/vtk_rotate_mombudaxis.py</title>
<ellipse fill="lightgrey" stroke="black" cx="125.243" cy="-442.923" rx="95.9041" ry="18"/>
<text text-anchor="middle" x="125.243" y="-440.423" font-family="Times New Roman,serif" font-size="10.00">mombud/vtk_rotate_mombudaxis.py</text>
</g>
<!-- mombud/vtk_rotate_mombudaxis.py&#45;&gt;wrappers.py -->
<g id="edge17" class="edge"><title>mombud/vtk_rotate_mombudaxis.py&#45;&gt;wrappers.py</title>
<path fill="none" stroke="black" d="M173.831,-427.311C221.206,-411.769 293.166,-388.162 338.131,-373.41"/>
<polygon fill="black" stroke="black" points="339.437,-376.666 347.847,-370.223 337.255,-370.014 339.437,-376.666"/>
</g>
<!-- mombud/vtk_rotate_mombudaxis.py&#45;&gt;mombud/vtk_viz/vtkvizfuncs.py -->
<g id="edge16" class="edge"><title>mombud/vtk_rotate_mombudaxis.py&#45;&gt;mombud/vtk_viz/vtkvizfuncs.py</title>
<path fill="none" stroke="black" d="M172.355,-427.116C195.956,-417.677 224.31,-404.151 246.508,-386.923 271.022,-367.897 267.524,-353.483 290.766,-332.923 305.222,-320.136 322.904,-308.324 338.65,-298.877"/>
<polygon fill="black" stroke="black" points="340.8,-301.674 347.659,-293.599 337.261,-295.634 340.8,-301.674"/>
</g>
<!-- mombud/vtk_viz -->
<g id="node13" class="node"><title>mombud/vtk_viz</title>
<ellipse fill="lightgrey" stroke="black" cx="125.243" cy="-691.923" rx="48.7185" ry="18"/>
<text text-anchor="middle" x="125.243" y="-689.423" font-family="Times New Roman,serif" font-size="10.00">mombud/vtk_viz</text>
</g>
</g>
</svg>
